<svg id="svg" version="1.1" xmlns="http://www.w3.org/2000/svg" xmlns:xlink="http://www.w3.org/1999/xlink" width="400" height="300.57012542759406" viewBox="0, 0, 400,300.57012542759406"><g id="svgg"><path id="path0" d="M363.835 88.642 C 363.049 88.704,362.406 88.869,362.406 89.008 C 362.406 89.147,361.323 89.357,359.998 89.474 C 358.674 89.591,357.525 89.794,357.444 89.924 C 357.363 90.055,356.078 90.258,354.589 90.376 C 353.099 90.494,351.880 90.692,351.880 90.818 C 351.880 90.943,350.835 91.140,349.557 91.255 C 348.280 91.371,347.096 91.575,346.926 91.708 C 346.756 91.841,345.672 92.042,344.518 92.155 C 343.364 92.269,342.213 92.547,341.962 92.773 C 341.710 92.999,339.406 93.547,336.842 93.991 C 334.278 94.434,331.165 94.983,329.925 95.209 C 327.747 95.607,324.902 96.107,319.850 96.982 C 313.339 98.109,304.543 99.649,298.947 100.641 C 295.796 101.199,291.821 101.887,289.624 102.254 C 287.928 102.537,279.868 103.951,275.038 104.813 C 269.855 105.738,262.088 107.095,259.549 107.519 C 258.143 107.755,255.842 108.152,254.436 108.402 C 251.647 108.897,248.005 109.535,244.135 110.203 C 238.198 111.229,228.927 112.851,223.158 113.874 C 221.752 114.123,219.519 114.511,218.195 114.737 C 216.872 114.962,214.639 115.353,213.233 115.605 C 210.965 116.012,208.681 116.413,199.174 118.072 C 197.809 118.310,195.576 118.696,194.211 118.931 C 192.846 119.165,190.511 119.576,189.023 119.843 C 187.534 120.111,183.947 120.737,181.053 121.236 C 175.766 122.147,173.071 122.615,168.195 123.468 C 166.748 123.721,164.752 124.060,163.759 124.222 C 162.767 124.384,161.655 124.585,161.289 124.667 L 160.624 124.818 160.688 119.326 L 160.752 113.835 159.886 112.099 C 156.480 105.265,150.969 104.668,138.496 109.780 C 138.165 109.916,136.921 110.385,135.732 110.823 C 132.440 112.033,130.243 113.972,128.995 116.767 C 128.525 117.818,128.441 117.810,126.231 116.515 C 109.526 106.725,80.924 118.383,73.221 138.121 C 72.643 139.602,72.252 140.193,71.778 140.301 C 70.843 140.515,66.163 141.323,63.008 141.816 C 61.519 142.048,59.150 142.455,57.744 142.720 C 56.338 142.985,53.932 143.258,52.396 143.325 C 50.860 143.393,49.369 143.574,49.082 143.727 C 48.795 143.881,47.446 144.104,46.085 144.223 C 44.723 144.341,43.609 144.556,43.609 144.700 C 43.609 144.845,43.282 144.962,42.882 144.962 C 41.131 144.962,41.203 144.576,41.203 153.956 L 41.203 162.585 39.173 162.977 C 38.056 163.193,36.602 163.439,35.940 163.523 C 35.278 163.608,34.602 163.783,34.436 163.913 C 34.271 164.043,32.951 164.247,31.504 164.366 C 30.056 164.485,28.872 164.686,28.872 164.812 C 28.872 164.938,27.722 165.137,26.316 165.255 C 24.910 165.372,23.759 165.579,23.759 165.714 C 23.759 165.850,22.609 166.057,21.203 166.174 C 19.797 166.291,18.647 166.494,18.647 166.625 C 18.647 166.756,17.496 166.959,16.090 167.076 C 14.684 167.193,13.534 167.394,13.534 167.522 C 13.534 167.651,12.316 167.852,10.827 167.970 C 9.338 168.088,8.120 168.291,8.120 168.422 C 8.120 168.552,7.037 168.755,5.713 168.872 C 4.388 168.990,3.230 169.207,3.138 169.355 C 3.047 169.503,2.517 169.624,1.962 169.624 C -0.705 169.624,-0.665 170.648,2.101 173.233 C 11.177 181.713,31.000 201.866,30.664 202.271 C 30.462 202.514,27.540 205.505,24.171 208.916 C 20.802 212.327,18.045 215.178,18.045 215.252 C 18.045 215.325,13.985 219.447,9.023 224.411 C -0.428 233.864,-1.524 235.273,0.977 234.752 C 1.515 234.640,3.038 234.397,4.361 234.211 C 5.684 234.026,6.835 233.780,6.917 233.665 C 7.000 233.550,8.083 233.357,9.323 233.236 C 10.564 233.115,11.714 232.912,11.880 232.785 C 12.045 232.657,13.228 232.458,14.509 232.341 C 15.790 232.225,16.906 232.020,16.989 231.886 C 17.072 231.752,18.223 231.546,19.547 231.429 C 20.871 231.311,21.955 231.114,21.955 230.989 C 21.955 230.865,22.868 230.674,23.985 230.564 C 26.467 230.321,26.835 230.259,27.218 230.023 C 27.383 229.920,28.570 229.739,29.854 229.619 C 31.138 229.500,32.263 229.283,32.353 229.137 C 32.443 228.991,33.042 228.872,33.684 228.872 C 34.326 228.872,34.927 228.751,35.018 228.603 C 35.110 228.455,36.268 228.238,37.592 228.120 C 38.917 228.003,40.000 227.800,40.000 227.670 C 40.000 227.539,41.218 227.336,42.707 227.218 C 44.195 227.100,45.414 226.897,45.414 226.766 C 45.414 226.636,46.497 226.433,47.821 226.316 C 49.145 226.198,50.298 225.990,50.383 225.853 C 50.468 225.716,51.617 225.510,52.938 225.395 C 54.258 225.280,55.338 225.084,55.338 224.959 C 55.338 224.835,56.488 224.637,57.894 224.520 C 59.299 224.403,60.516 224.198,60.599 224.065 C 60.681 223.931,61.833 223.726,63.158 223.609 C 64.483 223.492,65.632 223.291,65.712 223.162 C 65.791 223.034,66.873 222.833,68.116 222.717 C 70.386 222.504,70.950 222.070,70.101 221.188 C 69.212 220.264,62.797 206.312,62.509 204.677 C 62.401 204.059,63.084 203.848,66.433 203.469 C 67.196 203.382,68.496 203.187,69.323 203.034 C 70.150 202.881,72.316 202.529,74.135 202.251 C 77.499 201.737,94.965 198.829,107.519 196.693 C 122.990 194.060,136.235 191.819,138.647 191.428 C 141.397 190.981,153.768 188.877,162.556 187.360 C 165.534 186.846,168.917 186.301,170.075 186.150 C 171.233 185.998,173.940 185.546,176.090 185.144 C 178.241 184.743,181.286 184.195,182.857 183.928 C 184.429 183.660,186.505 183.289,187.472 183.102 C 189.510 182.709,189.607 182.782,189.870 184.918 C 192.249 204.270,223.582 204.015,230.661 184.586 C 231.072 183.460,231.267 183.538,232.460 185.295 C 242.935 200.733,270.025 191.173,272.059 171.320 C 272.343 168.544,271.948 168.741,279.699 167.508 C 281.659 167.197,295.042 164.926,302.707 163.604 C 305.684 163.090,309.271 162.483,310.677 162.255 C 312.083 162.026,315.602 161.433,318.496 160.937 C 334.212 158.242,341.320 157.049,347.368 156.092 C 348.278 155.948,349.752 155.685,350.643 155.509 C 353.398 154.963,353.196 154.583,352.991 159.925 C 352.891 162.530,352.680 165.474,352.523 166.466 C 352.365 167.459,352.154 169.061,352.052 170.026 L 351.868 171.782 354.205 171.569 C 355.490 171.452,356.677 171.251,356.842 171.122 C 357.008 170.993,358.192 170.790,359.474 170.671 C 360.756 170.553,361.805 170.352,361.805 170.226 C 361.805 170.099,362.955 169.900,364.361 169.783 C 365.767 169.666,366.917 169.464,366.917 169.335 C 366.917 169.206,368.033 169.003,369.396 168.884 C 370.759 168.765,372.011 168.578,372.178 168.469 C 372.345 168.360,373.530 168.102,374.812 167.895 C 379.759 167.097,381.821 166.723,382.256 166.544 C 382.727 166.350,386.751 165.871,387.143 165.962 C 387.267 165.991,387.368 165.898,387.368 165.756 C 387.368 165.613,388.409 165.402,389.681 165.287 C 390.954 165.172,392.138 164.984,392.313 164.869 C 392.488 164.755,393.782 164.489,395.188 164.278 C 400.426 163.493,400.000 163.632,400.000 162.717 C 400.000 162.261,399.662 161.390,399.248 160.780 C 398.835 160.171,398.496 159.543,398.496 159.385 C 398.496 159.227,398.395 159.097,398.271 159.096 C 398.147 159.095,397.513 158.283,396.863 157.292 C 396.213 156.300,395.584 155.489,395.467 155.489 C 395.349 155.489,395.168 155.150,395.064 154.737 C 394.961 154.323,394.743 153.985,394.581 153.985 C 394.418 153.985,394.286 153.778,394.286 153.524 C 394.286 153.271,394.083 152.986,393.835 152.891 C 393.586 152.796,393.383 152.529,393.383 152.299 C 393.383 152.068,393.282 151.879,393.158 151.877 C 393.034 151.876,392.393 151.030,391.733 149.997 C 391.073 148.965,390.430 148.075,390.304 148.020 C 390.178 147.965,390.075 147.724,390.075 147.484 C 390.075 147.245,389.872 146.971,389.624 146.876 C 389.376 146.780,389.173 146.513,389.173 146.281 C 389.173 146.049,388.902 145.627,388.571 145.344 C 388.241 145.060,387.970 144.656,387.970 144.444 C 387.970 144.233,387.837 144.060,387.675 144.060 C 387.513 144.060,387.295 143.722,387.191 143.308 C 387.087 142.895,386.893 142.556,386.760 142.556 C 386.627 142.556,386.114 141.914,385.620 141.128 C 384.285 139.003,382.437 136.405,382.180 136.291 C 382.056 136.236,381.955 136.061,381.955 135.903 C 381.955 135.565,380.705 133.730,380.376 133.584 C 380.252 133.529,380.150 133.309,380.150 133.094 C 380.150 132.880,379.952 132.541,379.710 132.340 C 379.272 131.977,379.745 130.762,380.547 130.191 C 380.798 130.012,381.403 129.047,381.846 128.120 C 381.964 127.872,382.139 127.602,382.234 127.519 C 382.644 127.161,383.759 125.410,383.759 125.125 C 383.759 124.953,383.892 124.812,384.054 124.812 C 384.217 124.812,384.432 124.483,384.533 124.082 C 384.633 123.680,384.907 123.279,385.140 123.189 C 385.373 123.100,385.564 122.819,385.564 122.566 C 385.564 122.313,385.697 122.105,385.859 122.105 C 386.021 122.105,386.236 121.777,386.337 121.375 C 386.438 120.974,386.711 120.572,386.944 120.482 C 387.178 120.393,387.368 120.124,387.368 119.884 C 387.368 119.645,387.470 119.404,387.594 119.348 C 387.923 119.202,389.173 117.367,389.173 117.030 C 389.173 116.871,389.274 116.697,389.398 116.642 C 389.665 116.523,390.977 114.690,390.977 114.436 C 390.977 114.339,391.118 114.097,391.290 113.897 C 392.099 112.955,394.286 109.753,394.286 109.511 C 394.286 109.360,394.489 109.159,394.737 109.064 C 394.985 108.969,395.188 108.684,395.188 108.430 C 395.188 108.177,395.314 107.970,395.468 107.970 C 395.623 107.970,395.842 107.676,395.956 107.316 C 396.070 106.957,396.285 106.517,396.433 106.339 C 397.671 104.852,397.895 104.524,397.895 104.197 C 397.895 103.992,398.098 103.746,398.346 103.651 C 398.594 103.555,398.797 103.270,398.797 103.017 C 398.797 102.764,398.919 102.556,399.068 102.556 C 399.356 102.556,400.000 100.953,400.000 100.238 C 400.000 99.778,395.961 99.974,395.338 100.464 C 395.173 100.594,394.023 100.797,392.782 100.915 C 391.541 101.033,390.391 101.233,390.226 101.359 C 390.060 101.484,388.910 101.685,387.669 101.805 C 386.429 101.924,385.278 102.127,385.113 102.256 C 384.947 102.384,383.797 102.587,382.556 102.707 C 381.316 102.826,380.165 103.029,380.000 103.158 C 379.835 103.287,378.583 103.489,377.218 103.607 C 375.853 103.725,374.737 103.927,374.737 104.056 C 374.737 104.185,373.586 104.386,372.180 104.503 C 370.774 104.620,369.624 104.826,369.624 104.960 C 369.624 105.095,368.947 105.252,368.120 105.309 L 366.616 105.414 366.616 96.917 L 366.617 88.421 365.940 88.475 C 365.568 88.505,364.620 88.580,363.835 88.642 M325.946 110.282 C 330.203 113.466,327.684 120.864,322.331 120.896 C 320.936 120.904,320.238 120.255,319.258 118.038 C 318.228 115.709,316.281 115.856,313.760 118.454 L 312.584 119.666 312.228 126.525 C 312.032 130.297,311.735 137.308,311.569 142.105 C 311.403 146.902,311.197 151.170,311.112 151.590 C 310.964 152.322,300.657 154.570,299.759 154.066 C 299.627 153.992,299.613 152.116,299.728 149.898 C 299.964 145.349,299.882 145.219,298.237 147.515 C 291.391 157.070,279.881 159.925,273.691 153.605 L 272.174 152.055 271.657 152.795 C 270.065 155.069,267.296 157.457,263.973 159.422 C 261.963 160.610,262.048 160.361,261.821 165.714 C 261.456 174.354,259.283 179.067,254.507 181.580 C 246.732 185.671,239.398 182.698,239.398 175.455 C 239.398 171.512,241.358 168.721,246.460 165.396 C 250.722 162.619,250.581 162.769,250.471 161.134 L 250.376 159.712 249.173 160.846 C 243.562 166.136,236.108 166.036,232.397 160.621 L 231.895 159.888 230.008 161.779 C 228.970 162.818,227.105 164.324,225.865 165.125 C 224.624 165.925,223.369 166.757,223.076 166.974 C 222.629 167.305,222.496 168.141,222.251 172.180 C 221.928 177.490,221.701 178.897,220.767 181.393 C 216.488 192.831,199.018 192.963,199.752 181.551 C 200.014 177.474,203.706 173.351,210.111 169.980 C 210.599 169.723,210.785 169.273,210.905 168.056 C 211.106 166.022,211.145 166.033,209.429 167.656 C 202.978 173.757,194.166 172.168,191.383 164.402 C 190.231 161.185,189.655 151.773,190.377 147.962 C 190.766 145.916,190.825 145.929,188.410 147.515 C 187.277 148.260,186.105 148.946,185.806 149.041 C 185.319 149.196,185.263 149.620,185.263 153.178 C 185.262 166.294,179.198 175.454,169.809 176.521 C 164.927 177.075,161.333 175.895,159.549 173.150 C 158.373 171.342,158.603 171.251,155.138 174.881 C 148.502 181.831,140.505 181.969,137.384 175.188 C 136.322 172.880,136.425 166.121,138.076 129.774 C 138.478 120.925,138.073 122.097,141.119 120.971 C 148.172 118.364,149.796 117.816,149.965 117.985 C 150.129 118.149,149.808 126.505,148.870 146.466 C 148.012 164.717,147.924 168.933,148.378 170.018 C 149.297 172.218,152.624 172.149,155.486 169.870 C 157.094 168.589,157.272 168.039,156.711 166.082 C 154.964 159.990,155.968 149.516,158.848 143.794 C 163.654 134.245,177.262 130.035,181.688 136.728 C 183.108 138.875,183.361 139.389,183.887 141.203 C 184.611 143.699,184.746 143.897,185.798 144.002 C 188.736 144.296,191.104 142.541,193.008 138.656 C 196.980 130.551,207.402 126.121,211.544 130.778 C 212.345 131.678,212.632 131.336,212.632 129.476 C 212.632 128.200,212.742 127.826,213.158 127.696 C 214.134 127.392,222.527 126.015,223.403 126.015 L 224.271 126.015 224.171 128.195 C 224.117 129.395,223.934 133.353,223.766 136.992 C 223.597 140.632,223.319 147.331,223.147 151.880 C 222.975 156.429,222.805 160.543,222.770 161.023 C 222.735 161.503,222.857 161.947,223.041 162.011 C 223.480 162.164,228.263 157.492,229.303 155.895 L 230.115 154.647 229.803 150.748 C 228.905 139.549,231.955 129.703,237.609 125.553 C 242.231 122.160,247.979 121.409,250.847 123.823 C 251.953 124.753,252.024 124.693,252.235 122.642 L 252.404 121.011 257.449 120.184 C 260.224 119.730,262.801 119.278,263.176 119.180 L 263.857 119.002 263.648 123.787 C 263.533 126.418,263.244 133.376,263.006 139.248 C 262.768 145.120,262.483 151.177,262.373 152.707 C 262.116 156.283,262.189 156.277,265.995 152.406 C 270.148 148.182,270.293 147.869,269.833 144.149 C 269.227 139.257,269.610 132.104,270.642 129.023 C 270.780 128.609,271.063 127.729,271.271 127.068 C 273.757 119.135,280.651 114.090,288.186 114.690 C 293.576 115.119,295.789 117.759,295.789 123.759 C 295.789 130.697,291.365 136.278,282.881 140.042 L 280.752 140.986 280.851 143.045 C 281.313 152.588,291.238 152.483,297.576 142.867 C 300.342 138.671,300.306 138.893,300.899 122.105 C 300.995 119.376,301.147 116.178,301.236 114.999 L 301.398 112.855 303.105 112.519 C 306.353 111.881,311.710 110.977,312.245 110.977 C 312.703 110.977,312.782 111.253,312.782 112.841 L 312.782 114.704 313.759 113.796 C 318.335 109.542,323.114 108.163,325.946 110.282 M286.131 119.467 C 283.411 121.566,281.433 127.168,280.758 134.690 L 280.559 136.899 281.558 136.683 C 284.232 136.105,287.435 133.705,289.173 130.977 C 293.048 124.895,290.685 115.952,286.131 119.467 M115.754 124.974 C 126.793 127.068,130.430 138.414,122.754 146.809 C 120.874 148.866,120.880 148.756,122.632 149.015 C 135.837 150.965,135.643 178.393,122.375 185.170 C 119.919 186.425,113.160 186.449,111.530 185.209 C 110.118 184.134,109.329 181.725,109.559 179.190 C 109.763 176.937,109.702 176.978,111.487 177.904 C 116.469 180.489,120.218 177.122,121.220 169.162 C 122.581 158.351,117.541 152.056,109.604 154.652 L 108.421 155.039 108.211 158.196 C 108.010 161.226,107.548 171.454,107.162 181.407 C 106.937 187.204,107.443 186.592,102.096 187.530 C 95.377 188.708,95.339 188.712,95.336 188.235 C 95.333 187.816,95.967 174.048,96.539 162.105 C 96.710 158.549,96.995 151.807,97.174 147.124 C 97.606 135.796,97.583 135.939,99.098 135.458 C 106.374 133.150,109.011 132.370,109.130 132.488 C 109.208 132.566,109.112 135.844,108.917 139.773 C 108.723 143.703,108.565 147.778,108.567 148.830 L 108.571 150.742 109.398 150.541 C 119.882 147.998,121.510 129.900,111.376 128.556 C 104.550 127.651,94.636 132.896,91.351 139.151 C 88.851 143.909,88.634 151.854,90.897 155.690 C 91.676 157.010,91.629 157.040,88.779 157.040 C 84.902 157.040,82.840 155.380,81.971 151.559 C 78.834 137.765,99.102 121.815,115.754 124.974 M245.855 126.927 C 239.385 128.875,236.549 152.566,242.427 155.563 C 246.123 157.448,250.479 154.808,250.870 150.446 C 251.597 142.353,251.841 129.344,251.278 128.722 C 249.868 127.163,247.582 126.407,245.855 126.927 M206.015 133.734 C 201.159 135.820,198.391 147.880,200.344 158.444 C 201.200 163.071,206.225 164.317,209.762 160.780 C 211.368 159.174,211.331 159.402,211.719 148.571 C 211.894 143.692,212.091 138.917,212.156 137.960 C 212.381 134.687,209.082 132.417,206.015 133.734 M172.770 138.633 C 166.344 141.237,164.151 165.213,170.110 167.703 C 175.271 169.859,178.804 165.137,179.416 155.265 C 179.648 151.526,179.475 150.977,178.061 150.977 C 175.064 150.977,174.499 145.528,177.200 142.671 C 179.267 140.484,175.862 137.380,172.770 138.633 M247.613 168.756 C 243.864 171.553,242.586 174.534,244.371 176.319 C 246.988 178.936,249.698 175.917,250.125 169.910 C 250.352 166.705,250.359 166.708,247.613 168.756 M207.890 175.508 C 203.648 178.734,202.683 182.504,205.772 183.783 C 208.305 184.832,210.321 181.502,210.592 175.821 C 210.701 173.536,210.513 173.514,207.890 175.508 " stroke="none" fill="#058cd3" fill-rule="evenodd"></path><path id="path1" d="M195.453 5.123 C 192.374 5.242,188.652 5.501,187.183 5.698 C 179.360 6.749,176.932 7.162,170.376 8.557 C 154.723 11.885,136.469 19.783,121.805 29.572 C 99.707 44.323,81.085 66.357,70.290 90.526 C 70.031 91.105,69.457 92.391,69.013 93.383 C 66.359 99.324,62.673 110.613,61.206 117.293 C 60.933 118.534,60.586 120.090,60.434 120.752 C 60.282 121.414,59.884 123.647,59.550 125.714 C 59.216 127.782,58.816 130.218,58.660 131.128 C 58.256 133.496,57.627 142.238,57.845 142.457 C 58.016 142.628,63.723 141.790,63.953 141.561 C 64.011 141.503,64.191 139.843,64.353 137.871 C 68.444 88.295,101.727 41.486,146.449 22.410 C 147.846 21.814,149.402 21.134,149.908 20.898 C 165.467 13.644,191.318 9.076,210.473 10.196 C 225.830 11.093,243.758 14.740,253.383 18.925 C 253.714 19.068,254.729 19.478,255.639 19.835 C 256.549 20.191,257.564 20.602,257.895 20.747 C 258.226 20.893,259.782 21.573,261.353 22.259 C 271.386 26.639,282.177 33.222,291.541 40.675 C 298.189 45.966,303.795 51.373,310.494 58.953 C 318.507 68.020,328.471 83.781,332.332 93.496 L 332.736 94.511 334.550 94.321 C 336.955 94.070,336.966 94.044,335.800 91.365 C 331.605 81.727,320.263 63.000,316.711 59.850 C 316.618 59.767,316.001 59.023,315.340 58.195 C 307.604 48.512,295.828 37.718,284.812 30.213 C 266.629 17.826,245.166 9.439,224.060 6.472 C 222.158 6.205,219.654 5.853,218.496 5.691 C 216.606 5.426,203.141 4.767,201.654 4.867 C 201.323 4.889,198.533 5.005,195.453 5.123 M182.105 35.907 C 178.223 37.128,174.645 41.316,173.861 45.556 C 173.648 46.711,173.534 53.736,173.534 65.714 C 173.534 85.176,173.614 86.510,174.939 89.126 C 180.476 100.052,196.310 97.233,197.893 85.039 C 198.273 82.121,198.267 48.846,197.887 46.218 C 196.785 38.597,189.236 33.665,182.105 35.907 M213.151 36.203 C 210.841 37.171,208.889 38.819,207.493 40.978 C 205.470 44.109,205.564 42.894,205.564 65.871 L 205.564 86.780 206.566 88.815 C 211.258 98.346,223.952 98.374,228.599 88.864 L 229.624 86.767 229.624 65.714 L 229.624 44.662 228.665 42.630 C 225.881 36.735,218.842 33.819,213.151 36.203 M146.003 36.767 C 145.924 36.974,145.895 50.135,145.937 66.015 L 146.015 94.887 149.925 94.887 L 153.835 94.887 153.985 78.045 L 154.135 61.203 160.226 61.122 L 166.316 61.040 166.316 56.986 L 166.316 52.932 160.333 52.932 C 153.318 52.932,153.985 53.408,153.985 48.405 L 153.985 44.829 158.120 44.745 L 162.256 44.662 162.340 40.775 C 162.403 37.868,162.328 36.828,162.039 36.645 C 161.364 36.216,146.169 36.332,146.003 36.767 M237.212 36.572 C 236.905 36.880,236.945 94.196,237.253 94.682 C 237.656 95.317,251.051 95.030,253.129 94.342 C 256.458 93.239,259.542 90.127,260.933 86.466 C 261.472 85.046,261.504 83.893,261.504 65.714 C 261.504 47.536,261.472 46.383,260.933 44.962 C 259.542 41.302,256.459 38.190,253.129 37.087 C 251.491 36.544,237.687 36.098,237.212 36.572 M188.178 44.562 C 189.827 46.102,189.775 45.401,189.773 65.775 C 189.772 84.090,189.754 84.691,189.175 85.642 C 187.511 88.371,184.167 88.462,182.527 85.824 L 181.805 84.662 181.805 65.714 L 181.805 46.767 182.526 45.606 C 183.799 43.558,186.558 43.049,188.178 44.562 M219.549 44.286 C 221.742 45.782,221.654 44.892,221.654 65.714 C 221.654 83.294,221.622 84.431,221.097 85.418 C 219.558 88.314,216.259 88.573,214.385 85.944 L 213.684 84.962 213.684 65.714 C 213.684 47.103,213.704 46.437,214.273 45.597 C 215.598 43.640,217.801 43.092,219.549 44.286 M251.339 45.401 C 253.457 46.693,253.383 45.966,253.383 65.714 C 253.383 81.628,253.332 83.552,252.888 84.362 C 251.887 86.186,251.317 86.457,248.240 86.570 L 245.414 86.675 245.414 65.743 L 245.414 44.812 247.895 44.813 C 249.825 44.814,250.590 44.945,251.339 45.401 M321.203 109.451 C 318.883 109.926,316.300 111.434,313.759 113.796 L 312.782 114.704 312.782 112.841 C 312.782 111.253,312.703 110.977,312.245 110.977 C 311.710 110.977,306.353 111.881,303.105 112.519 L 301.398 112.855 301.236 114.999 C 301.147 116.178,300.995 119.376,300.899 122.105 C 300.306 138.893,300.342 138.671,297.576 142.867 C 291.238 152.483,281.313 152.588,280.851 143.045 L 280.752 140.986 282.881 140.042 C 291.365 136.278,295.789 130.697,295.789 123.759 C 295.789 109.549,275.921 112.230,271.271 127.068 C 271.063 127.729,270.780 128.609,270.642 129.023 C 269.610 132.104,269.227 139.257,269.833 144.149 C 270.293 147.869,270.148 148.182,265.995 152.406 C 262.189 156.277,262.116 156.283,262.373 152.707 C 262.483 151.177,262.768 145.120,263.006 139.248 C 263.244 133.376,263.533 126.418,263.648 123.787 L 263.857 119.002 263.176 119.180 C 262.801 119.278,260.224 119.730,257.449 120.184 L 252.404 121.011 252.235 122.642 C 252.024 124.693,251.953 124.753,250.847 123.823 C 247.979 121.409,242.231 122.160,237.609 125.553 C 231.955 129.703,228.905 139.549,229.803 150.748 L 230.115 154.647 229.303 155.895 C 228.263 157.492,223.480 162.164,223.041 162.011 C 222.857 161.947,222.735 161.503,222.770 161.023 C 222.805 160.543,222.975 156.429,223.147 151.880 C 223.319 147.331,223.597 140.632,223.766 136.992 C 223.934 133.353,224.117 129.395,224.171 128.195 L 224.271 126.015 223.403 126.015 C 222.527 126.015,214.134 127.392,213.158 127.696 C 212.742 127.826,212.632 128.200,212.632 129.476 C 212.632 131.336,212.345 131.678,211.544 130.778 C 207.402 126.121,196.980 130.551,193.008 138.656 C 191.104 142.541,188.736 144.296,185.798 144.002 C 184.746 143.897,184.611 143.699,183.887 141.203 C 183.361 139.389,183.108 138.875,181.688 136.728 C 177.262 130.035,163.654 134.245,158.848 143.794 C 155.968 149.516,154.964 159.990,156.711 166.082 C 157.272 168.039,157.094 168.589,155.486 169.870 C 152.624 172.149,149.297 172.218,148.378 170.018 C 147.924 168.933,148.012 164.717,148.870 146.466 C 149.808 126.505,150.129 118.149,149.965 117.985 C 149.796 117.816,148.172 118.364,141.119 120.971 C 138.073 122.097,138.478 120.925,138.076 129.774 C 136.425 166.121,136.322 172.880,137.384 175.188 C 140.505 181.969,148.502 181.831,155.138 174.881 C 158.603 171.251,158.373 171.342,159.549 173.150 C 161.333 175.895,164.927 177.075,169.809 176.521 C 179.198 175.454,185.262 166.294,185.263 153.178 C 185.263 149.620,185.319 149.196,185.806 149.041 C 186.105 148.946,187.277 148.260,188.410 147.515 C 190.825 145.929,190.766 145.916,190.377 147.962 C 189.655 151.773,190.231 161.185,191.383 164.402 C 194.166 172.168,202.978 173.757,209.429 167.656 C 211.145 166.033,211.106 166.022,210.905 168.056 C 210.785 169.273,210.599 169.723,210.111 169.980 C 203.706 173.351,200.014 177.474,199.752 181.551 C 199.018 192.963,216.488 192.831,220.767 181.393 C 221.701 178.897,221.928 177.490,222.251 172.180 C 222.496 168.141,222.629 167.305,223.076 166.974 C 223.369 166.757,224.624 165.925,225.865 165.125 C 227.105 164.324,228.970 162.818,230.008 161.779 L 231.895 159.888 232.397 160.621 C 236.108 166.036,243.562 166.136,249.173 160.846 L 250.376 159.712 250.471 161.134 C 250.581 162.769,250.722 162.619,246.460 165.396 C 241.358 168.721,239.398 171.512,239.398 175.455 C 239.398 182.698,246.732 185.671,254.507 181.580 C 259.283 179.067,261.456 174.354,261.821 165.714 C 262.048 160.361,261.963 160.610,263.973 159.422 C 267.296 157.457,270.065 155.069,271.657 152.795 L 272.174 152.055 273.691 153.605 C 279.881 159.925,291.391 157.070,298.237 147.515 C 299.882 145.219,299.964 145.349,299.728 149.898 C 299.613 152.116,299.627 153.992,299.759 154.066 C 300.657 154.570,310.964 152.322,311.112 151.590 C 311.197 151.170,311.403 146.902,311.569 142.105 C 311.735 137.308,312.032 130.297,312.228 126.525 L 312.584 119.666 313.760 118.454 C 316.281 115.856,318.228 115.709,319.258 118.038 C 320.830 121.594,324.316 121.930,326.689 118.755 C 330.208 114.046,326.820 108.301,321.203 109.451 M289.363 119.119 C 290.979 119.984,291.677 124.875,290.629 127.992 C 289.253 132.085,285.298 135.874,281.558 136.683 L 280.559 136.899 280.758 134.690 C 281.721 123.965,285.532 117.069,289.363 119.119 M106.316 125.102 C 91.580 127.758,79.535 140.849,81.971 151.559 C 82.840 155.380,84.902 157.040,88.779 157.040 C 91.629 157.040,91.676 157.010,90.897 155.690 C 88.634 151.854,88.851 143.909,91.351 139.151 C 94.636 132.896,104.550 127.651,111.376 128.556 C 121.510 129.900,119.882 147.998,109.398 150.541 L 108.571 150.742 108.567 148.830 C 108.565 147.778,108.723 143.703,108.917 139.773 C 109.112 135.844,109.208 132.566,109.130 132.488 C 109.011 132.370,106.374 133.150,99.098 135.458 C 97.583 135.939,97.606 135.796,97.174 147.124 C 96.995 151.807,96.710 158.549,96.539 162.105 C 95.967 174.048,95.333 187.816,95.336 188.235 C 95.339 188.712,95.377 188.708,102.096 187.530 C 107.443 186.592,106.937 187.204,107.162 181.407 C 107.548 171.454,108.010 161.226,108.211 158.196 L 108.421 155.039 109.604 154.652 C 117.541 152.056,122.581 158.351,121.220 169.162 C 120.218 177.122,116.469 180.489,111.487 177.904 C 109.702 176.978,109.763 176.937,109.559 179.190 C 109.092 184.344,110.839 186.018,116.671 186.007 C 123.600 185.994,127.474 183.030,130.359 175.533 C 135.138 163.118,131.405 150.311,122.632 149.015 C 120.880 148.756,120.874 148.866,122.754 146.809 C 133.266 135.313,123.225 122.055,106.316 125.102 M249.794 127.534 C 251.978 128.876,251.885 128.251,251.460 138.732 C 250.888 152.823,250.934 152.494,249.324 154.135 C 245.572 157.957,240.864 156.462,239.854 151.128 C 237.259 137.424,243.146 123.450,249.794 127.534 M209.486 133.798 C 211.547 134.734,212.297 135.904,212.156 137.960 C 212.091 138.917,211.894 143.692,211.719 148.571 C 211.331 159.402,211.368 159.174,209.762 160.780 C 206.225 164.317,201.200 163.071,200.344 158.444 C 197.801 144.686,202.942 130.826,209.486 133.798 M176.565 139.023 C 177.999 140.519,178.191 141.623,177.200 142.671 C 174.499 145.528,175.064 150.977,178.061 150.977 C 179.475 150.977,179.648 151.526,179.416 155.265 C 178.804 165.137,175.271 169.859,170.110 167.703 C 165.029 165.580,165.720 145.318,171.055 139.983 C 172.878 138.160,175.329 137.733,176.565 139.023 M345.433 156.351 C 344.335 156.588,344.253 156.909,343.772 162.857 C 339.057 221.194,298.072 269.813,239.850 286.135 C 239.023 286.367,237.331 286.779,236.090 287.051 C 234.850 287.323,233.361 287.666,232.782 287.813 C 218.008 291.566,191.784 291.573,175.489 287.829 C 174.827 287.677,173.271 287.328,172.030 287.054 C 169.510 286.498,168.306 286.171,163.308 284.685 C 124.437 273.125,90.875 243.109,75.180 205.865 C 73.589 202.090,73.913 202.340,71.108 202.718 C 67.017 203.268,67.146 203.008,68.907 207.158 C 73.673 218.393,80.521 230.045,87.943 239.549 C 108.590 265.987,136.994 284.286,169.173 291.882 C 176.034 293.501,178.156 293.882,186.617 295.011 C 193.064 295.872,216.416 296.007,217.739 295.191 C 217.825 295.139,219.248 294.937,220.902 294.743 C 223.503 294.439,226.811 293.908,232.180 292.934 C 269.676 286.134,306.616 259.948,327.433 225.414 C 331.667 218.388,339.248 202.698,339.248 200.959 C 339.248 200.758,339.377 200.358,339.534 200.071 C 339.858 199.479,341.295 195.176,342.219 192.030 C 345.413 181.152,347.469 169.644,347.875 160.376 L 348.062 156.090 347.189 156.126 C 346.709 156.145,345.918 156.247,345.433 156.351 M250.125 169.910 C 249.698 175.917,246.988 178.936,244.371 176.319 C 242.586 174.534,243.864 171.553,247.613 168.756 C 250.359 166.708,250.352 166.705,250.125 169.910 M210.592 175.821 C 210.321 181.502,208.305 184.832,205.772 183.783 C 202.683 182.504,203.648 178.734,207.890 175.508 C 210.513 173.514,210.701 173.536,210.592 175.821 M230.621 212.309 C 226.374 213.969,223.264 217.777,222.539 222.203 C 222.170 224.456,222.176 259.492,222.546 261.751 C 224.740 275.148,243.337 275.774,246.500 262.556 C 247.073 260.160,247.073 223.749,246.500 221.353 C 244.786 214.191,237.060 209.791,230.621 212.309 M160.740 213.008 C 160.661 213.214,160.632 226.376,160.674 242.256 L 160.752 271.128 164.728 271.212 L 168.705 271.296 168.788 267.152 L 168.872 263.008 172.632 262.849 C 179.244 262.569,183.372 259.231,184.822 252.989 C 185.486 250.131,185.464 225.565,184.795 222.680 C 183.676 217.857,180.123 214.158,175.578 213.087 C 173.069 212.495,160.960 212.431,160.740 213.008 M192.620 213.008 C 192.541 213.214,192.511 226.376,192.554 242.256 L 192.632 271.128 195.940 271.215 C 200.952 271.348,200.569 271.690,200.668 266.989 L 200.752 263.008 203.176 262.921 L 205.601 262.835 206.450 265.477 C 208.030 270.397,208.191 270.827,208.532 271.048 C 209.007 271.356,216.471 271.335,216.662 271.025 C 216.748 270.886,215.990 268.241,214.977 265.147 L 213.136 259.522 213.783 258.708 C 216.804 254.910,216.835 254.702,216.835 237.895 C 216.835 219.504,216.184 217.184,210.160 214.103 C 207.449 212.717,193.073 211.819,192.620 213.008 M236.380 220.403 C 238.584 221.585,238.508 220.821,238.517 242.077 C 238.525 260.763,238.515 261.102,237.904 262.090 C 236.247 264.772,232.631 264.538,231.129 261.651 C 230.694 260.816,230.588 254.848,230.644 234.571 L 230.677 222.978 231.494 221.718 C 232.701 219.855,234.471 219.379,236.380 220.403 M175.425 222.234 L 176.692 223.415 176.865 235.091 C 177.150 254.295,176.975 254.907,171.278 254.682 L 168.872 254.586 168.794 237.820 L 168.717 221.053 171.438 221.053 L 174.159 221.053 175.425 222.234 M207.201 222.088 C 208.654 223.482,208.718 224.158,208.720 238.150 C 208.722 254.622,208.684 254.737,203.205 254.737 L 200.602 254.737 200.602 237.866 L 200.602 220.995 203.439 221.099 C 206.104 221.197,206.334 221.257,207.201 222.088 " stroke="none" fill="#fafafa" fill-rule="evenodd"></path><path id="path2" d="M191.504 0.212 C 191.876 0.284,192.485 0.284,192.857 0.212 C 193.229 0.141,192.925 0.082,192.180 0.082 C 191.436 0.082,191.132 0.141,191.504 0.212 M213.012 0.216 C 213.469 0.285,214.146 0.283,214.515 0.212 C 214.885 0.140,214.511 0.084,213.684 0.086 C 212.857 0.088,212.554 0.147,213.012 0.216 M182.406 0.902 C 182.301 1.073,182.553 1.203,182.990 1.203 C 183.413 1.203,183.759 1.068,183.759 0.902 C 183.759 0.737,183.497 0.602,183.176 0.602 C 182.855 0.602,182.508 0.737,182.406 0.902 M221.955 0.902 C 221.955 1.068,222.301 1.203,222.725 1.203 C 223.161 1.203,223.414 1.073,223.308 0.902 C 223.206 0.737,222.860 0.602,222.539 0.602 C 222.218 0.602,221.955 0.737,221.955 0.902 M197.218 5.032 C 197.921 5.096,199.071 5.096,199.774 5.032 C 200.477 4.969,199.902 4.917,198.496 4.917 C 197.090 4.917,196.515 4.969,197.218 5.032 M205.940 5.032 C 206.643 5.096,207.793 5.096,208.496 5.032 C 209.199 4.969,208.624 4.917,207.218 4.917 C 205.812 4.917,205.237 4.969,205.940 5.032 M159.098 6.015 C 159.098 6.180,159.301 6.316,159.549 6.316 C 159.797 6.316,160.000 6.180,160.000 6.015 C 160.000 5.850,159.797 5.714,159.549 5.714 C 159.301 5.714,159.098 5.850,159.098 6.015 M194.737 10.381 C 179.111 11.472,161.024 15.715,149.908 20.898 C 149.402 21.134,147.846 21.814,146.449 22.410 C 111.087 37.493,81.533 71.128,69.815 109.624 C 66.324 121.093,62.885 142.051,64.578 141.538 C 64.872 141.449,65.925 141.242,66.917 141.078 C 72.455 140.161,72.343 140.201,72.770 139.000 C 77.487 125.739,94.971 113.188,108.872 113.084 C 109.917 113.076,111.862 112.506,110.913 112.486 C 110.658 112.480,111.261 111.041,113.311 106.767 C 119.504 93.853,129.364 81.500,140.739 72.406 C 145.577 68.538,145.268 68.589,145.244 71.654 L 145.225 74.135 143.815 75.293 C 134.238 83.158,124.790 95.566,118.639 108.358 C 116.312 113.198,116.305 113.247,117.970 113.503 C 120.246 113.852,123.400 114.946,125.990 116.285 C 127.382 117.005,128.543 117.560,128.569 117.519 C 128.596 117.477,128.923 116.835,129.297 116.090 C 130.909 112.882,132.221 112.043,140.301 109.056 C 149.072 105.813,149.485 105.711,151.933 106.175 C 158.371 107.396,160.769 110.943,160.721 119.173 C 160.691 124.218,160.721 124.511,161.258 124.511 C 161.777 124.511,166.079 123.797,173.083 122.547 C 174.571 122.281,176.940 121.867,178.346 121.625 C 179.752 121.384,181.985 120.998,183.308 120.766 C 184.632 120.535,187.744 119.992,190.226 119.559 C 192.707 119.127,196.293 118.498,198.195 118.161 C 200.098 117.824,202.331 117.434,203.158 117.293 C 203.985 117.153,206.286 116.746,208.271 116.388 C 210.256 116.031,212.624 115.620,213.534 115.475 C 214.444 115.330,216.338 115.006,217.744 114.756 C 222.796 113.858,225.730 113.343,233.158 112.049 C 234.523 111.811,238.008 111.209,240.902 110.710 C 243.797 110.211,247.383 109.584,248.872 109.317 C 250.361 109.050,252.696 108.639,254.061 108.404 C 255.426 108.170,257.659 107.783,259.023 107.545 C 268.530 105.887,270.814 105.486,273.083 105.079 C 274.489 104.827,276.722 104.437,278.045 104.212 C 279.368 103.987,282.075 103.514,284.060 103.161 C 286.045 102.808,288.752 102.330,290.075 102.100 C 291.398 101.869,294.511 101.326,296.992 100.893 C 299.474 100.460,302.620 99.913,303.985 99.677 C 305.350 99.441,307.583 99.054,308.947 98.816 C 325.919 95.860,332.453 94.738,332.690 94.737 C 333.059 94.736,329.708 87.650,327.044 82.798 C 322.499 74.518,316.091 65.286,310.494 58.953 C 299.475 46.485,289.464 38.038,276.090 29.923 C 272.488 27.738,265.088 23.889,261.353 22.259 C 259.782 21.573,258.226 20.893,257.895 20.747 C 257.564 20.602,256.549 20.191,255.639 19.835 C 254.729 19.478,253.714 19.068,253.383 18.925 C 253.053 18.781,250.695 17.971,248.145 17.125 C 231.042 11.452,212.652 9.130,194.737 10.381 M107.266 33.631 C 106.545 34.428,106.651 34.702,107.393 33.960 C 107.738 33.615,107.963 33.276,107.893 33.206 C 107.823 33.136,107.541 33.327,107.266 33.631 M104.483 35.940 C 104.037 36.353,103.793 36.689,103.941 36.687 C 104.228 36.681,105.742 35.188,105.461 35.188 C 105.369 35.188,104.929 35.526,104.483 35.940 M189.646 35.987 C 193.928 37.425,197.204 41.492,197.887 46.218 C 198.267 48.846,198.273 82.121,197.893 85.039 C 196.310 97.233,180.476 100.052,174.939 89.126 C 173.614 86.510,173.534 85.176,173.534 65.714 C 173.534 53.736,173.648 46.711,173.861 45.556 C 175.203 38.301,182.808 33.690,189.646 35.987 M222.637 36.453 C 224.997 37.557,227.463 40.085,228.665 42.630 L 229.624 44.662 229.624 65.714 L 229.624 86.767 228.599 88.864 C 223.952 98.374,211.258 98.346,206.566 88.815 L 205.564 86.780 205.564 65.871 C 205.564 42.894,205.470 44.109,207.493 40.978 C 210.742 35.951,217.349 33.977,222.637 36.453 M162.039 36.645 C 162.328 36.828,162.403 37.868,162.340 40.775 L 162.256 44.662 158.120 44.745 L 153.985 44.829 153.985 48.405 C 153.985 53.408,153.318 52.932,160.333 52.932 L 166.316 52.932 166.316 56.986 L 166.316 61.040 160.226 61.122 L 154.135 61.203 153.985 78.045 L 153.835 94.887 149.925 94.887 L 146.015 94.887 145.937 66.015 C 145.895 50.135,145.924 36.974,146.003 36.767 C 146.169 36.332,161.364 36.216,162.039 36.645 M253.129 37.087 C 256.459 38.190,259.542 41.302,260.933 44.962 C 261.472 46.383,261.504 47.536,261.504 65.714 C 261.504 83.893,261.472 85.046,260.933 86.466 C 259.542 90.127,256.458 93.239,253.129 94.342 C 251.051 95.030,237.656 95.317,237.253 94.682 C 236.945 94.196,236.905 36.880,237.212 36.572 C 237.687 36.098,251.491 36.544,253.129 37.087 M104.798 42.782 L 103.609 44.060 104.887 42.871 C 106.076 41.766,106.304 41.504,106.076 41.504 C 106.027 41.504,105.452 42.079,104.798 42.782 M184.181 44.023 C 183.668 44.254,182.924 44.967,182.526 45.606 L 181.805 46.767 181.805 65.714 L 181.805 84.662 182.527 85.824 C 184.167 88.462,187.511 88.371,189.175 85.642 C 189.961 84.352,190.126 47.562,189.352 46.075 C 188.283 44.022,186.100 43.155,184.181 44.023 M215.777 44.169 C 213.559 45.522,213.684 44.233,213.684 65.714 L 213.684 84.962 214.385 85.944 C 216.259 88.573,219.558 88.314,221.097 85.418 C 221.622 84.431,221.654 83.294,221.654 65.714 C 221.654 48.134,221.622 46.998,221.097 46.010 C 219.948 43.848,217.623 43.043,215.777 44.169 M245.414 65.743 L 245.414 86.675 248.240 86.570 C 251.317 86.457,251.887 86.186,252.888 84.362 C 253.680 82.918,253.639 48.437,252.843 46.979 C 251.947 45.339,250.749 44.814,247.895 44.813 L 245.414 44.812 245.414 65.743 M93.657 46.278 C 91.896 48.023,91.002 49.023,91.202 49.023 C 91.402 49.023,95.038 45.437,95.038 45.239 C 95.038 44.969,94.791 45.154,93.657 46.278 M310.226 52.331 C 310.872 52.992,311.468 53.534,311.551 53.534 C 311.633 53.534,311.172 52.992,310.526 52.331 C 309.880 51.669,309.284 51.128,309.201 51.128 C 309.119 51.128,309.579 51.669,310.226 52.331 M95.169 52.406 L 94.286 53.383 95.263 52.500 C 96.174 51.677,96.379 51.429,96.146 51.429 C 96.095 51.429,95.655 51.868,95.169 52.406 M86.067 54.766 C 85.510 55.657,85.757 55.724,86.405 54.858 C 86.702 54.460,86.836 54.135,86.703 54.135 C 86.570 54.135,86.283 54.419,86.067 54.766 M320.000 55.572 C 320.000 55.885,320.809 56.842,321.074 56.842 C 321.313 56.842,321.205 56.636,320.602 55.940 C 320.271 55.558,320.000 55.393,320.000 55.572 M171.729 56.208 C 171.729 56.355,172.068 56.561,172.481 56.665 C 174.041 57.056,173.398 57.742,170.376 58.911 C 169.549 59.231,168.466 59.708,167.970 59.970 C 166.651 60.668,166.576 60.605,166.676 58.875 C 166.751 57.574,166.872 57.280,167.368 57.191 C 167.699 57.132,168.376 56.906,168.872 56.689 C 170.659 55.908,171.729 55.727,171.729 56.208 M164.511 61.483 C 164.511 61.554,163.869 61.926,163.083 62.310 C 161.747 62.963,156.472 66.006,154.962 66.994 L 154.286 67.438 154.286 65.342 L 154.286 63.246 156.015 62.308 C 157.589 61.454,164.511 60.782,164.511 61.483 M53.668 127.545 C 53.557 127.725,53.617 128.023,53.801 128.207 C 54.046 128.452,54.135 128.366,54.135 127.880 C 54.135 127.154,53.979 127.042,53.668 127.545 M52.804 134.826 C 52.670 135.289,52.643 135.751,52.746 135.854 C 53.082 136.190,53.280 135.710,53.164 134.840 L 53.049 133.985 52.804 134.826 M57.814 138.346 C 57.814 138.925,57.876 139.162,57.952 138.872 C 58.027 138.583,58.027 138.109,57.952 137.820 C 57.876 137.530,57.814 137.767,57.814 138.346 M52.417 140.602 C 52.419 141.429,52.478 141.731,52.547 141.274 C 52.616 140.817,52.614 140.140,52.543 139.770 C 52.471 139.400,52.415 139.774,52.417 140.602 M57.526 141.353 C 57.526 142.098,57.584 142.402,57.656 142.030 C 57.728 141.658,57.728 141.049,57.656 140.677 C 57.584 140.305,57.526 140.609,57.526 141.353 M348.056 157.444 C 348.058 158.271,348.117 158.573,348.186 158.116 C 348.255 157.659,348.253 156.982,348.182 156.612 C 348.110 156.243,348.054 156.617,348.056 157.444 M342.105 156.992 C 340.985 157.201,338.675 157.594,332.331 158.654 C 330.925 158.889,328.556 159.295,327.068 159.556 C 325.579 159.818,323.143 160.232,321.654 160.478 C 320.165 160.724,317.797 161.115,316.391 161.347 C 314.985 161.580,311.398 162.190,308.421 162.703 C 305.444 163.216,301.857 163.825,300.451 164.057 C 299.045 164.289,294.241 165.104,289.774 165.869 C 285.308 166.634,280.910 167.380,280.000 167.528 C 271.830 168.855,272.622 168.482,272.188 171.204 C 270.622 181.045,264.920 188.346,256.383 191.442 C 247.003 194.845,236.959 192.242,232.252 185.188 C 231.261 183.704,231.188 183.732,230.122 186.009 C 227.504 191.604,220.261 198.080,216.479 198.209 C 216.265 198.216,215.549 198.415,214.887 198.651 C 204.271 202.436,191.691 195.656,189.794 185.127 C 189.341 182.611,190.571 182.662,178.797 184.671 C 177.639 184.869,175.880 185.217,174.887 185.445 C 173.895 185.674,172.000 185.996,170.677 186.161 C 169.353 186.326,167.120 186.660,165.714 186.903 C 164.308 187.145,161.940 187.544,160.451 187.789 C 158.962 188.034,155.308 188.657,152.331 189.173 C 149.353 189.689,145.767 190.297,144.361 190.524 C 142.955 190.751,139.368 191.361,136.391 191.880 C 133.414 192.398,130.233 192.937,129.323 193.076 C 127.373 193.374,124.201 193.919,121.595 194.404 L 119.731 194.750 122.050 198.813 C 130.459 213.545,142.938 226.272,157.209 234.668 L 160.301 236.487 160.301 238.995 C 160.301 240.375,160.231 241.504,160.145 241.504 C 159.150 241.504,150.098 236.151,145.040 232.572 C 132.900 223.983,120.012 209.019,114.436 197.039 C 113.865 195.813,113.781 195.755,112.782 195.905 C 111.363 196.117,107.391 196.782,101.053 197.868 C 98.158 198.364,92.474 199.315,88.421 199.982 C 84.368 200.649,80.376 201.325,79.549 201.486 C 78.722 201.646,77.233 201.868,76.241 201.978 C 73.529 202.279,73.561 202.136,75.319 206.192 C 90.663 241.602,120.122 269.263,156.541 282.458 C 161.186 284.141,168.029 286.171,172.030 287.054 C 173.271 287.328,174.827 287.677,175.489 287.829 C 191.784 291.573,218.008 291.566,232.782 287.813 C 233.361 287.666,234.850 287.323,236.090 287.051 C 238.630 286.494,239.873 286.156,244.812 284.679 C 299.015 268.467,338.994 219.418,343.739 163.308 C 343.928 161.075,344.153 158.673,344.240 157.970 C 344.415 156.552,344.429 156.558,342.105 156.992 M351.278 174.454 C 351.278 174.794,351.414 174.989,351.579 174.887 C 351.744 174.785,351.880 174.506,351.880 174.268 C 351.880 174.030,351.744 173.835,351.579 173.835 C 351.414 173.835,351.278 174.113,351.278 174.454 M350.376 179.567 C 350.376 179.907,350.511 180.102,350.677 180.000 C 350.842 179.898,350.977 179.619,350.977 179.381 C 350.977 179.142,350.842 178.947,350.677 178.947 C 350.511 178.947,350.376 179.226,350.376 179.567 M349.474 183.910 C 349.474 184.158,349.609 184.361,349.774 184.361 C 349.940 184.361,350.075 184.158,350.075 183.910 C 350.075 183.662,349.940 183.459,349.774 183.459 C 349.609 183.459,349.474 183.662,349.474 183.910 M238.367 212.230 C 242.332 213.568,245.483 217.104,246.500 221.353 C 247.073 223.749,247.073 260.160,246.500 262.556 C 243.337 275.774,224.740 275.148,222.546 261.751 C 222.176 259.492,222.170 224.456,222.539 222.203 C 223.761 214.740,231.452 209.895,238.367 212.230 M175.578 213.087 C 178.762 213.838,182.235 216.562,183.721 219.473 C 185.078 222.134,185.263 224.034,185.263 235.325 L 185.263 245.950 187.293 246.421 C 188.410 246.680,189.898 246.977,190.602 247.081 L 191.880 247.271 191.880 249.064 L 191.880 250.857 190.000 250.660 C 188.966 250.551,187.527 250.337,186.802 250.184 C 186.077 250.030,185.459 249.943,185.428 249.990 C 185.398 250.037,185.196 251.023,184.980 252.180 C 183.723 258.917,179.509 262.558,172.632 262.849 L 168.872 263.008 168.788 267.152 L 168.705 271.296 164.728 271.212 L 160.752 271.128 160.674 242.256 C 160.632 226.376,160.661 213.214,160.740 213.008 C 160.960 212.431,173.069 212.495,175.578 213.087 M207.152 213.086 C 210.623 213.904,213.194 215.759,214.982 218.736 C 216.798 221.757,216.835 222.144,216.835 237.895 C 216.835 254.702,216.804 254.910,213.783 258.708 L 213.136 259.522 214.977 265.147 C 215.990 268.241,216.748 270.886,216.662 271.025 C 216.471 271.335,209.007 271.356,208.532 271.048 C 208.191 270.827,208.030 270.397,206.450 265.477 L 205.601 262.835 203.176 262.921 L 200.752 263.008 200.668 266.989 C 200.569 271.690,200.952 271.348,195.940 271.215 L 192.632 271.128 192.554 242.256 C 192.511 226.376,192.541 213.214,192.620 213.008 C 192.839 212.432,204.651 212.496,207.152 213.086 M280.277 216.759 C 270.774 227.418,261.083 234.985,249.407 240.863 C 247.137 242.006,247.155 242.005,247.273 240.977 C 247.356 240.259,247.763 239.954,250.382 238.647 C 260.942 233.378,269.379 227.320,277.191 219.397 C 280.380 216.163,282.180 214.624,280.277 216.759 M233.073 220.178 C 232.653 220.332,231.943 221.025,231.494 221.718 L 230.677 222.978 230.644 234.571 C 230.588 254.848,230.694 260.816,231.129 261.651 C 232.631 264.538,236.247 264.772,237.904 262.090 C 238.816 260.614,238.869 223.762,237.961 222.013 C 237.046 220.249,234.983 219.475,233.073 220.178 M168.794 237.820 L 168.872 254.586 171.278 254.682 C 176.975 254.907,177.150 254.295,176.865 235.091 L 176.692 223.415 175.425 222.234 L 174.159 221.053 171.438 221.053 L 168.717 221.053 168.794 237.820 M200.602 237.866 L 200.602 254.737 203.205 254.737 C 208.684 254.737,208.722 254.622,208.720 238.150 C 208.718 221.202,208.746 221.294,203.439 221.099 L 200.602 220.995 200.602 237.866 M170.715 241.400 C 171.356 241.674,172.895 242.264,174.135 242.711 L 176.391 243.524 176.479 245.672 C 176.584 248.205,176.864 248.133,172.632 246.662 L 169.474 245.564 169.386 243.233 C 169.338 241.951,169.355 240.902,169.424 240.902 C 169.494 240.902,170.075 241.126,170.715 241.400 M238.447 244.494 C 238.592 245.489,238.255 245.705,234.822 246.817 C 230.920 248.081,230.919 248.081,231.034 246.732 L 231.128 245.644 234.436 244.660 C 238.172 243.549,238.307 243.544,238.447 244.494 M320.473 244.382 C 320.213 244.642,320.000 245.003,320.000 245.184 C 320.000 245.366,320.035 245.457,320.078 245.388 C 320.122 245.320,320.413 244.959,320.727 244.586 C 321.375 243.817,321.188 243.667,320.473 244.382 M318.356 247.084 C 317.900 247.507,317.610 247.936,317.711 248.037 C 317.812 248.138,317.929 248.164,317.970 248.095 C 318.011 248.026,318.373 247.598,318.774 247.143 C 319.691 246.103,319.451 246.070,318.356 247.084 M310.507 248.195 L 309.624 249.173 310.602 248.290 C 311.513 247.466,311.717 247.218,311.485 247.218 C 311.433 247.218,310.993 247.658,310.507 248.195 M221.955 248.704 C 221.955 250.159,221.864 250.218,219.249 250.437 L 217.143 250.614 217.147 249.592 C 217.154 248.127,217.423 247.872,219.104 247.743 C 219.927 247.679,220.906 247.603,221.278 247.573 C 221.875 247.525,221.955 247.659,221.955 248.704 M208.271 249.925 L 208.271 251.278 204.586 251.363 L 200.902 251.447 200.902 249.925 L 200.902 248.403 204.586 248.487 L 208.271 248.571 208.271 249.925 M91.006 251.776 C 91.791 252.665,94.820 255.639,94.940 255.639 C 95.215 255.639,94.861 255.223,92.922 253.264 C 90.951 251.274,89.712 250.311,91.006 251.776 M305.554 253.459 L 303.910 255.188 305.639 253.544 C 307.246 252.017,307.506 251.729,307.283 251.729 C 307.236 251.729,306.458 252.508,305.554 253.459 M100.000 253.534 C 100.646 254.195,101.242 254.737,101.325 254.737 C 101.408 254.737,100.947 254.195,100.301 253.534 C 99.655 252.872,99.058 252.331,98.976 252.331 C 98.893 252.331,99.354 252.872,100.000 253.534 M310.129 256.126 C 309.415 256.851,308.923 257.444,309.037 257.444 C 309.319 257.444,311.694 255.050,311.547 254.915 C 311.482 254.856,310.844 255.401,310.129 256.126 M300.435 258.271 L 299.398 259.398 300.526 258.362 C 301.576 257.397,301.792 257.143,301.563 257.143 C 301.512 257.143,301.005 257.650,300.435 258.271 M104.245 264.444 C 104.348 264.739,104.720 265.127,105.073 265.308 C 105.622 265.590,105.651 265.578,105.277 265.225 C 105.036 264.998,104.664 264.609,104.449 264.361 C 104.109 263.968,104.083 263.979,104.245 264.444 M106.767 266.420 C 106.767 266.559,107.038 266.919,107.368 267.218 C 107.699 267.517,107.970 267.674,107.970 267.565 C 107.970 267.457,107.699 267.098,107.368 266.767 C 107.038 266.436,106.767 266.280,106.767 266.420 M297.143 267.891 C 296.456 268.572,296.448 268.608,297.051 268.302 C 297.706 267.969,298.202 267.412,298.000 267.237 C 297.942 267.187,297.556 267.481,297.143 267.891 M251.429 292.932 C 251.429 293.098,251.632 293.233,251.880 293.233 C 252.128 293.233,252.331 293.098,252.331 292.932 C 252.331 292.767,252.128 292.632,251.880 292.632 C 251.632 292.632,251.429 292.767,251.429 292.932 M196.165 295.858 C 196.786 295.923,197.801 295.923,198.421 295.858 C 199.041 295.793,198.534 295.740,197.293 295.740 C 196.053 295.740,195.545 295.793,196.165 295.858 M207.293 295.858 C 207.914 295.923,208.929 295.923,209.549 295.858 C 210.169 295.793,209.662 295.740,208.421 295.740 C 207.180 295.740,206.673 295.793,207.293 295.858 M171.669 298.105 C 171.950 298.386,172.110 298.386,172.391 298.105 C 172.672 297.825,172.591 297.744,172.030 297.744 C 171.469 297.744,171.388 297.825,171.669 298.105 M176.541 298.947 C 177.124 299.324,177.444 299.324,177.444 298.947 C 177.444 298.782,177.139 298.649,176.767 298.651 C 176.220 298.655,176.177 298.712,176.541 298.947 M182.406 299.850 C 182.508 300.015,182.787 300.150,183.025 300.150 C 183.264 300.150,183.459 300.015,183.459 299.850 C 183.459 299.684,183.180 299.549,182.839 299.549 C 182.499 299.549,182.304 299.684,182.406 299.850 M221.955 299.850 C 221.955 300.015,222.218 300.150,222.539 300.150 C 222.860 300.150,223.206 300.015,223.308 299.850 C 223.414 299.679,223.161 299.549,222.725 299.549 C 222.301 299.549,221.955 299.684,221.955 299.850 M191.504 300.663 C 191.876 300.735,192.485 300.735,192.857 300.663 C 193.229 300.592,192.925 300.533,192.180 300.533 C 191.436 300.533,191.132 300.592,191.504 300.663 M213.012 300.667 C 213.469 300.736,214.146 300.734,214.515 300.663 C 214.885 300.591,214.511 300.535,213.684 300.537 C 212.857 300.539,212.554 300.598,213.012 300.667 " stroke="none" fill="#f38c54" fill-rule="evenodd"></path><path id="path3" d="M190.333 0.144 C 190.266 0.210,188.794 0.353,187.062 0.460 C 185.329 0.568,183.844 0.761,183.760 0.891 C 183.677 1.020,182.256 1.225,180.602 1.347 C 178.947 1.469,177.524 1.681,177.437 1.818 C 177.311 2.020,175.184 2.275,172.689 2.388 C 172.472 2.398,172.372 2.530,172.465 2.681 C 172.559 2.832,171.621 3.051,170.382 3.167 C 169.142 3.283,168.202 3.498,168.292 3.644 C 168.383 3.790,168.313 3.910,168.138 3.910 C 167.963 3.910,167.820 3.771,167.820 3.602 C 167.820 3.433,167.457 3.532,167.014 3.822 C 166.571 4.113,165.894 4.309,165.510 4.259 C 165.126 4.209,164.812 4.313,164.812 4.490 C 164.812 4.667,164.406 4.812,163.910 4.812 C 163.414 4.812,163.008 4.947,163.008 5.113 C 163.008 5.278,162.864 5.414,162.689 5.414 C 162.514 5.414,162.468 5.255,162.588 5.062 C 162.736 4.822,162.638 4.774,162.280 4.911 C 161.992 5.022,161.555 5.113,161.311 5.113 C 161.048 5.113,160.956 5.257,161.084 5.465 C 161.231 5.703,161.136 5.753,160.790 5.620 C 160.473 5.499,160.213 5.593,160.107 5.869 C 159.988 6.179,159.627 6.275,158.912 6.187 C 158.328 6.114,157.961 6.179,158.059 6.338 C 158.154 6.491,157.896 6.617,157.486 6.617 C 157.077 6.617,156.697 6.747,156.642 6.906 C 156.586 7.066,156.013 7.261,155.367 7.341 C 154.720 7.420,154.080 7.662,153.943 7.878 C 153.738 8.200,153.693 8.199,153.689 7.873 C 153.685 7.575,153.566 7.594,153.212 7.948 C 152.952 8.208,152.410 8.421,152.009 8.421 C 151.607 8.421,151.276 8.590,151.274 8.797 C 151.270 9.078,151.205 9.072,151.015 8.772 C 150.810 8.449,150.725 8.463,150.578 8.847 C 150.476 9.112,150.049 9.323,149.616 9.323 C 149.187 9.323,148.911 9.444,149.002 9.591 C 149.093 9.738,148.662 9.954,148.043 10.070 C 147.425 10.186,146.851 10.390,146.768 10.524 C 146.685 10.658,146.156 10.840,145.593 10.929 C 145.031 11.017,144.474 11.245,144.357 11.435 C 144.239 11.625,144.057 11.769,143.951 11.755 C 143.846 11.741,143.726 11.740,143.684 11.754 C 143.643 11.768,143.203 11.844,142.707 11.925 C 142.211 12.005,141.697 12.265,141.565 12.501 C 141.432 12.738,141.127 12.932,140.887 12.932 C 140.647 12.932,140.451 13.062,140.451 13.219 C 140.451 13.377,139.977 13.595,139.398 13.704 C 138.820 13.813,138.346 14.018,138.346 14.159 C 138.346 14.301,138.143 14.339,137.895 14.244 C 137.647 14.149,137.444 14.229,137.444 14.422 C 137.444 14.615,137.288 14.676,137.097 14.558 C 136.907 14.441,136.602 14.547,136.421 14.796 C 136.076 15.268,136.031 15.292,135.048 15.549 C 134.715 15.636,134.517 15.827,134.608 15.974 C 134.759 16.219,134.245 16.356,133.308 16.321 C 133.102 16.314,132.932 16.503,132.932 16.743 C 132.932 16.982,132.796 17.094,132.629 16.991 C 132.463 16.888,132.246 17.015,132.147 17.272 C 132.048 17.530,131.855 17.672,131.719 17.587 C 131.582 17.503,131.384 17.574,131.278 17.744 C 131.173 17.915,130.959 17.976,130.804 17.881 C 130.649 17.785,130.441 17.918,130.342 18.176 C 130.242 18.435,130.032 18.647,129.875 18.647 C 129.717 18.647,129.671 18.513,129.772 18.349 C 129.878 18.179,129.757 18.128,129.491 18.230 C 129.235 18.329,129.101 18.530,129.192 18.678 C 129.284 18.826,129.072 18.947,128.722 18.947 C 128.371 18.947,128.162 19.073,128.257 19.226 C 128.352 19.380,128.157 19.592,127.824 19.698 C 127.491 19.804,127.218 20.010,127.218 20.157 C 127.218 20.304,126.731 20.515,126.136 20.627 C 125.461 20.754,125.193 20.916,125.424 21.059 C 125.662 21.206,125.458 21.362,124.852 21.495 C 124.334 21.609,123.910 21.824,123.910 21.973 C 123.910 22.122,123.571 22.329,123.158 22.433 C 122.744 22.537,122.406 22.742,122.406 22.890 C 122.406 23.037,122.135 23.158,121.805 23.158 C 121.470 23.158,121.203 23.358,121.203 23.609 C 121.203 24.002,120.654 24.211,119.925 24.096 C 119.801 24.076,119.699 24.263,119.699 24.511 C 119.699 24.762,119.432 24.962,119.098 24.962 C 118.767 24.962,118.496 25.155,118.496 25.390 C 118.496 25.625,118.092 25.906,117.597 26.014 C 117.103 26.123,116.608 26.358,116.498 26.536 C 116.371 26.742,116.441 26.771,116.692 26.617 C 116.952 26.456,117.013 26.491,116.871 26.720 C 116.753 26.911,116.292 27.070,115.847 27.072 C 115.218 27.076,115.138 27.141,115.489 27.364 C 115.843 27.590,115.731 27.693,114.967 27.847 C 114.432 27.955,114.069 28.163,114.159 28.309 C 114.250 28.456,114.078 28.663,113.778 28.770 C 113.479 28.876,113.030 29.136,112.782 29.348 C 112.534 29.559,112.195 29.741,112.030 29.753 C 111.865 29.765,111.712 29.910,111.692 30.075 C 111.671 30.241,111.637 30.507,111.617 30.667 C 111.596 30.827,111.398 30.889,111.177 30.804 C 110.957 30.720,110.449 30.937,110.050 31.288 C 109.650 31.639,109.526 31.836,109.774 31.726 C 110.023 31.616,109.887 31.806,109.474 32.148 C 109.060 32.489,108.553 32.772,108.346 32.775 C 108.139 32.779,107.970 32.917,107.970 33.083 C 107.970 33.539,106.769 34.656,106.758 34.211 C 106.753 34.002,106.612 34.069,106.442 34.361 C 106.273 34.650,105.939 34.887,105.699 34.887 C 105.459 34.887,105.295 34.989,105.333 35.113 C 105.431 35.430,104.294 36.692,103.910 36.692 C 103.735 36.692,103.148 37.098,102.605 37.594 C 102.062 38.090,101.456 38.498,101.260 38.501 C 101.046 38.504,101.084 38.623,101.353 38.797 C 101.667 39.000,101.690 39.101,101.429 39.131 C 100.431 39.243,100.305 39.298,100.363 39.598 C 100.433 39.963,99.255 41.157,98.797 41.185 C 98.632 41.195,98.496 41.372,98.496 41.579 C 98.496 41.786,98.327 41.955,98.120 41.955 C 97.914 41.955,97.736 42.090,97.726 42.256 C 97.717 42.421,97.446 42.654,97.125 42.772 C 96.783 42.899,96.539 43.273,96.537 43.675 C 96.533 44.228,96.476 44.274,96.241 43.910 C 95.991 43.524,95.948 43.535,95.944 43.985 C 95.942 44.274,95.737 44.511,95.489 44.511 C 95.241 44.511,95.038 44.703,95.038 44.938 C 95.038 45.415,91.548 49.023,91.086 49.023 C 90.924 49.023,90.875 49.158,90.977 49.323 C 91.080 49.489,90.952 49.624,90.694 49.624 C 90.437 49.624,90.226 49.827,90.226 50.075 C 90.226 50.323,90.090 50.526,89.925 50.526 C 89.759 50.526,89.624 50.733,89.624 50.985 C 89.624 51.237,89.286 51.572,88.872 51.729 C 88.459 51.887,88.120 52.094,88.120 52.191 C 88.120 52.287,88.277 52.270,88.468 52.152 C 88.683 52.019,88.733 52.069,88.600 52.284 C 88.482 52.475,88.184 52.632,87.937 52.632 C 87.690 52.632,87.288 53.111,87.043 53.696 C 86.799 54.282,86.464 54.678,86.299 54.576 C 86.135 54.475,86.020 54.503,86.043 54.639 C 86.151 55.262,85.987 55.657,85.694 55.476 C 85.517 55.367,85.299 55.562,85.208 55.910 C 85.117 56.257,84.939 56.541,84.812 56.541 C 84.685 56.541,84.507 56.826,84.416 57.173 C 84.324 57.526,84.108 57.716,83.926 57.604 C 83.732 57.484,83.529 57.770,83.419 58.317 C 83.319 58.819,82.993 59.308,82.696 59.402 C 82.399 59.496,82.012 59.984,81.837 60.486 C 81.662 60.988,81.391 61.319,81.235 61.223 C 81.079 61.126,80.864 61.443,80.758 61.927 C 80.652 62.411,80.370 62.882,80.132 62.973 C 79.894 63.064,79.699 63.346,79.699 63.600 C 79.699 63.853,79.488 64.060,79.230 64.060 C 78.972 64.060,78.846 64.196,78.949 64.363 C 79.052 64.530,78.924 64.747,78.666 64.846 C 78.407 64.946,78.195 65.215,78.195 65.446 C 78.195 65.676,78.052 65.865,77.877 65.865 C 77.702 65.865,77.633 65.986,77.725 66.134 C 77.816 66.282,77.670 66.488,77.399 66.592 C 77.128 66.696,76.991 66.866,77.095 66.970 C 77.199 67.074,77.075 67.311,76.821 67.497 C 76.420 67.791,76.201 68.337,76.113 69.266 C 76.101 69.400,75.955 69.426,75.789 69.323 C 75.624 69.221,75.489 69.348,75.489 69.606 C 75.489 69.864,75.339 70.075,75.156 70.075 C 74.973 70.075,74.896 70.265,74.985 70.497 C 75.082 70.751,74.905 70.981,74.539 71.077 C 74.083 71.196,73.980 71.391,74.129 71.859 C 74.244 72.223,74.193 72.481,74.005 72.481 C 73.829 72.481,73.682 72.718,73.680 73.008 C 73.676 73.457,73.633 73.468,73.388 73.083 C 73.162 72.729,73.058 72.842,72.904 73.609 C 72.795 74.147,72.588 74.586,72.444 74.586 C 72.299 74.586,72.180 74.768,72.180 74.991 C 72.180 75.213,71.910 75.640,71.579 75.940 C 71.248 76.239,70.977 76.666,70.977 76.889 C 70.977 77.111,70.859 77.293,70.715 77.293 C 70.571 77.293,70.369 77.820,70.266 78.463 C 70.157 79.143,69.871 79.713,69.583 79.824 C 69.310 79.929,69.172 80.099,69.276 80.203 C 69.379 80.307,69.273 80.540,69.039 80.722 C 68.805 80.904,68.570 81.323,68.517 81.654 C 68.464 81.985,68.246 82.394,68.032 82.562 C 67.817 82.731,67.620 83.171,67.592 83.540 C 67.564 83.909,67.439 84.211,67.314 84.211 C 67.189 84.211,67.164 84.414,67.260 84.662 C 67.355 84.910,67.294 85.113,67.124 85.113 C 66.954 85.113,66.726 85.519,66.617 86.015 C 66.508 86.511,66.300 86.917,66.155 86.917 C 66.010 86.917,65.803 87.391,65.694 87.970 C 65.586 88.549,65.387 89.023,65.254 89.023 C 65.120 89.023,64.914 89.460,64.796 89.996 C 64.679 90.531,64.364 91.136,64.096 91.340 C 63.828 91.543,63.732 91.714,63.881 91.720 C 64.031 91.725,63.896 92.023,63.580 92.383 C 63.265 92.742,63.177 92.937,63.383 92.816 C 63.590 92.695,63.759 92.739,63.759 92.915 C 63.759 93.090,63.636 93.233,63.485 93.233 C 63.334 93.233,63.121 93.764,63.011 94.413 C 62.902 95.061,62.611 95.669,62.364 95.764 C 62.118 95.858,62.001 96.072,62.104 96.238 C 62.207 96.405,62.164 96.541,62.008 96.541 C 61.852 96.541,61.653 96.812,61.567 97.143 C 61.480 97.474,61.532 97.669,61.682 97.577 C 61.832 97.484,61.955 97.551,61.955 97.727 C 61.955 97.902,61.820 98.045,61.654 98.045 C 61.489 98.045,61.353 98.316,61.353 98.647 C 61.353 98.977,61.202 99.248,61.018 99.248 C 60.830 99.248,60.751 99.513,60.839 99.850 C 60.926 100.180,60.874 100.451,60.724 100.451 C 60.574 100.451,60.451 100.722,60.451 101.053 C 60.451 101.383,60.300 101.654,60.115 101.654 C 59.919 101.654,59.850 101.925,59.950 102.308 C 60.064 102.740,59.922 103.135,59.534 103.472 C 59.124 103.827,58.888 104.544,58.752 105.845 C 58.629 107.019,58.464 107.563,58.306 107.313 C 58.130 107.036,58.043 107.143,58.015 107.669 C 57.993 108.083,57.944 108.556,57.906 108.722 C 57.867 108.887,57.806 109.429,57.769 109.925 C 57.711 110.714,57.670 110.751,57.444 110.226 C 57.219 109.704,57.179 109.743,57.141 110.526 C 57.041 112.554,56.782 114.137,56.524 114.296 C 56.258 114.461,55.851 116.609,55.885 117.669 C 55.895 117.959,55.794 118.195,55.662 118.195 C 55.530 118.195,55.339 118.896,55.238 119.751 C 55.137 120.607,54.915 121.446,54.745 121.616 C 54.575 121.786,54.438 122.067,54.441 122.241 C 54.443 122.414,54.576 122.353,54.737 122.105 C 54.986 121.720,55.029 121.731,55.033 122.180 C 55.036 122.470,54.922 122.707,54.780 122.707 C 54.639 122.707,54.439 123.602,54.337 124.696 C 54.235 125.791,53.979 126.899,53.767 127.160 C 53.471 127.526,53.469 127.583,53.759 127.408 C 54.013 127.256,54.135 127.390,54.135 127.820 C 54.135 128.170,54.000 128.373,53.835 128.271 C 53.669 128.168,53.531 128.330,53.528 128.629 C 53.499 131.134,53.111 135.819,52.923 135.940 C 52.794 136.023,52.626 137.748,52.549 139.774 C 52.389 143.999,52.151 143.728,55.481 143.115 L 57.347 142.771 57.863 137.476 C 58.552 130.415,59.196 126.285,60.896 118.045 C 71.741 65.483,117.205 19.966,170.376 8.437 C 172.030 8.079,173.925 7.658,174.586 7.502 C 177.128 6.905,183.733 5.952,189.474 5.355 C 193.973 4.886,211.742 4.886,216.241 5.355 C 221.981 5.952,228.587 6.905,231.128 7.502 C 231.789 7.658,233.684 8.079,235.338 8.437 C 278.994 17.903,319.755 51.700,336.247 92.105 C 336.635 93.056,337.097 93.834,337.273 93.832 C 338.431 93.824,341.570 93.135,341.891 92.819 C 342.297 92.419,342.075 91.319,341.642 91.586 C 341.504 91.671,341.298 91.116,341.184 90.351 C 341.064 89.555,340.880 89.116,340.752 89.323 C 340.618 89.540,340.448 89.253,340.326 88.601 C 340.214 88.006,339.994 87.519,339.836 87.519 C 339.678 87.519,339.549 87.327,339.549 87.093 C 339.549 86.858,339.380 86.598,339.173 86.515 C 338.920 86.413,338.911 86.355,339.145 86.340 C 339.346 86.326,339.424 86.052,339.329 85.689 C 339.216 85.258,339.094 85.177,338.938 85.428 C 338.795 85.660,338.636 85.449,338.505 84.852 C 338.391 84.334,338.173 83.910,338.021 83.910 C 337.869 83.910,337.744 83.707,337.744 83.459 C 337.744 83.211,337.615 83.008,337.457 83.008 C 337.299 83.008,337.081 82.535,336.973 81.958 C 336.865 81.380,336.662 80.978,336.524 81.064 C 336.385 81.149,336.182 80.743,336.072 80.161 C 335.963 79.579,335.770 79.167,335.643 79.246 C 335.516 79.324,335.329 78.977,335.229 78.474 C 335.128 77.971,334.840 77.353,334.588 77.101 C 334.336 76.849,334.207 76.519,334.301 76.367 C 334.395 76.215,334.271 76.090,334.027 76.090 C 333.777 76.090,333.495 75.695,333.383 75.188 C 333.274 74.692,333.063 74.286,332.914 74.286 C 332.765 74.286,332.558 73.947,332.454 73.534 C 332.351 73.120,332.145 72.782,331.997 72.782 C 331.850 72.782,331.729 72.511,331.729 72.180 C 331.729 71.850,331.532 71.579,331.292 71.579 C 331.028 71.579,330.774 71.151,330.652 70.502 C 330.541 69.910,330.265 69.355,330.039 69.268 C 329.813 69.181,329.698 68.996,329.785 68.856 C 329.871 68.716,329.667 68.455,329.332 68.275 C 328.972 68.083,328.722 67.644,328.722 67.207 C 328.722 66.782,328.565 66.498,328.353 66.541 C 328.150 66.583,327.937 66.304,327.879 65.921 C 327.820 65.539,327.580 65.153,327.345 65.062 C 327.110 64.972,326.917 64.716,326.917 64.494 C 326.917 64.272,326.680 63.952,326.391 63.783 C 326.102 63.615,325.992 63.473,326.147 63.468 C 326.302 63.463,326.133 63.183,325.771 62.845 C 325.409 62.508,325.111 62.001,325.108 61.718 C 325.104 61.275,325.063 61.266,324.812 61.654 C 324.577 62.018,324.520 61.973,324.516 61.422 C 324.513 60.996,324.240 60.615,323.790 60.410 C 323.359 60.214,322.999 59.731,322.895 59.212 C 322.799 58.733,322.557 58.376,322.356 58.419 C 322.155 58.461,321.934 58.226,321.864 57.895 C 321.794 57.564,321.547 57.183,321.314 57.049 C 321.080 56.915,320.967 56.680,321.062 56.526 C 321.157 56.373,321.030 56.326,320.780 56.422 C 320.469 56.541,320.264 56.351,320.130 55.817 C 320.023 55.388,319.829 55.038,319.699 55.038 C 319.570 55.038,319.383 54.714,319.283 54.319 C 319.170 53.866,318.797 53.519,318.273 53.380 C 317.817 53.258,317.608 53.098,317.808 53.024 C 318.041 52.938,317.876 52.599,317.348 52.084 C 316.895 51.641,316.494 51.143,316.458 50.977 C 316.421 50.812,316.222 50.677,316.015 50.677 C 315.808 50.677,315.633 50.474,315.625 50.226 C 315.618 49.977,315.437 49.812,315.224 49.858 C 315.010 49.904,314.764 49.669,314.677 49.335 C 314.589 49.002,314.398 48.803,314.252 48.893 C 314.105 48.984,313.985 48.919,313.985 48.750 C 313.985 48.580,313.592 48.040,313.113 47.549 C 312.633 47.059,312.322 46.575,312.423 46.474 C 312.523 46.374,312.308 46.214,311.945 46.119 C 311.582 46.024,311.359 45.827,311.450 45.680 C 311.540 45.533,311.411 45.414,311.163 45.414 C 310.915 45.414,310.616 45.257,310.498 45.066 C 310.365 44.851,310.415 44.801,310.630 44.934 C 310.821 45.052,310.977 45.069,310.977 44.973 C 310.977 44.876,310.638 44.668,310.223 44.510 C 309.809 44.353,309.486 44.119,309.507 43.992 C 309.614 43.338,309.400 43.054,308.662 42.869 C 308.050 42.715,307.954 42.602,308.271 42.406 C 308.588 42.210,308.495 42.098,307.890 41.946 C 307.449 41.835,307.008 41.487,306.908 41.173 C 306.808 40.859,306.614 40.602,306.477 40.602 C 306.341 40.602,305.910 40.265,305.520 39.855 C 305.131 39.444,304.635 39.106,304.418 39.103 C 304.202 39.100,304.108 38.962,304.211 38.797 C 304.313 38.632,304.181 38.496,303.918 38.496 C 303.655 38.496,303.327 38.192,303.189 37.820 C 303.051 37.447,302.819 37.177,302.672 37.218 C 302.526 37.259,302.400 37.124,302.392 36.917 C 302.385 36.711,302.216 36.575,302.016 36.617 C 301.817 36.658,301.654 36.549,301.654 36.375 C 301.654 36.201,301.282 35.929,300.827 35.769 C 300.372 35.610,299.769 35.076,299.488 34.582 C 299.181 34.045,298.728 33.684,298.360 33.684 C 298.013 33.684,297.744 33.487,297.744 33.233 C 297.744 32.985,297.643 32.798,297.519 32.818 C 296.900 32.915,296.596 32.724,296.444 32.141 C 296.329 31.703,296.123 31.560,295.792 31.687 C 295.510 31.795,295.384 31.748,295.491 31.576 C 295.592 31.412,295.525 31.278,295.342 31.278 C 295.159 31.278,294.664 30.906,294.242 30.451 C 293.821 29.996,293.349 29.624,293.193 29.624 C 293.038 29.624,292.814 29.473,292.696 29.289 C 292.578 29.104,292.177 28.858,291.805 28.742 C 291.432 28.626,291.128 28.337,291.128 28.100 C 291.128 27.863,290.857 27.669,290.526 27.669 C 290.195 27.669,289.959 27.519,290.000 27.334 C 290.041 27.150,289.761 26.947,289.378 26.882 C 288.995 26.817,288.342 26.362,287.929 25.870 C 287.515 25.379,287.084 24.989,286.972 25.005 C 286.378 25.088,286.001 24.927,286.165 24.662 C 286.268 24.496,286.087 24.361,285.764 24.361 C 285.441 24.361,285.099 24.158,285.004 23.910 C 284.909 23.662,284.630 23.459,284.385 23.459 C 284.140 23.459,283.802 23.222,283.633 22.932 C 283.440 22.601,283.323 22.553,283.317 22.803 C 283.311 23.102,283.191 23.084,282.836 22.728 C 282.576 22.468,282.184 22.256,281.966 22.256 C 281.747 22.256,281.490 22.053,281.395 21.805 C 281.300 21.556,281.007 21.353,280.744 21.353 C 280.480 21.353,280.349 21.218,280.451 21.053 C 280.553 20.887,280.354 20.752,280.008 20.752 C 279.663 20.752,279.307 20.562,279.218 20.330 C 279.129 20.098,278.592 19.822,278.024 19.715 C 277.457 19.609,276.992 19.392,276.992 19.234 C 276.992 19.077,276.756 18.945,276.466 18.943 C 276.063 18.939,276.034 18.879,276.341 18.684 C 276.646 18.490,276.592 18.390,276.116 18.265 C 275.750 18.170,275.484 18.246,275.478 18.449 C 275.472 18.640,275.296 18.488,275.086 18.111 C 274.877 17.733,274.631 17.499,274.540 17.590 C 274.450 17.681,274.007 17.564,273.557 17.331 C 273.047 17.066,272.888 16.857,273.136 16.774 C 273.354 16.702,272.951 16.549,272.241 16.436 C 271.530 16.322,271.022 16.111,271.111 15.967 C 271.200 15.823,270.800 15.616,270.223 15.508 C 269.645 15.400,269.173 15.193,269.173 15.048 C 269.173 14.903,268.749 14.692,268.231 14.578 C 267.537 14.425,267.398 14.301,267.704 14.107 C 268.002 13.919,267.890 13.842,267.308 13.839 C 266.862 13.837,266.388 13.641,266.255 13.404 C 266.044 13.027,265.097 12.737,263.817 12.656 C 263.600 12.643,263.497 12.511,263.588 12.365 C 263.679 12.218,263.112 11.998,262.328 11.876 C 261.196 11.701,261.026 11.606,261.504 11.413 C 261.995 11.214,261.925 11.166,261.118 11.149 C 260.510 11.136,260.061 10.945,259.949 10.651 C 259.802 10.268,259.716 10.253,259.512 10.576 C 259.321 10.877,259.256 10.883,259.253 10.602 C 259.250 10.395,258.906 10.226,258.487 10.226 C 258.068 10.226,257.643 10.011,257.543 9.749 C 257.395 9.365,257.310 9.351,257.101 9.674 C 256.888 10.004,256.792 9.997,256.561 9.637 C 256.406 9.397,255.832 9.148,255.285 9.086 C 254.738 9.024,254.193 8.816,254.075 8.624 C 253.858 8.272,253.763 8.249,252.238 8.166 C 251.773 8.141,251.469 7.998,251.561 7.848 C 251.654 7.698,251.063 7.484,250.248 7.372 C 249.367 7.250,248.698 6.987,248.596 6.723 C 248.502 6.478,248.293 6.360,248.131 6.460 C 247.969 6.560,247.466 6.399,247.013 6.103 C 246.559 5.806,246.293 5.733,246.420 5.940 C 246.550 6.150,246.511 6.316,246.334 6.316 C 246.158 6.316,246.015 6.180,246.015 6.015 C 246.015 5.850,245.575 5.705,245.038 5.693 C 244.194 5.675,244.142 5.633,244.662 5.388 C 245.113 5.174,244.945 5.135,243.985 5.230 C 243.282 5.299,242.707 5.234,242.707 5.084 C 242.707 4.934,242.301 4.812,241.805 4.812 C 241.308 4.812,240.902 4.660,240.902 4.474 C 240.902 4.258,240.575 4.201,240.000 4.316 C 239.491 4.418,239.098 4.368,239.098 4.203 C 239.098 4.042,238.658 3.908,238.120 3.905 C 237.379 3.902,237.252 3.830,237.594 3.609 C 237.943 3.383,237.842 3.309,237.143 3.281 C 236.647 3.261,236.038 3.214,235.789 3.177 C 235.541 3.141,234.797 3.078,234.135 3.038 C 233.166 2.979,233.049 2.915,233.534 2.707 C 234.054 2.483,234.013 2.444,233.233 2.416 C 230.878 2.330,228.406 2.022,228.266 1.797 C 228.100 1.528,224.479 1.098,223.031 1.174 C 222.547 1.200,222.071 1.090,221.972 0.930 C 221.646 0.402,190.840 -0.364,190.333 0.144 M111.208 113.000 C 111.749 113.067,112.561 113.065,113.013 112.997 C 113.465 112.928,113.023 112.873,112.030 112.875 C 111.038 112.877,110.668 112.933,111.208 113.000 M350.226 155.540 C 348.221 155.921,348.353 155.587,347.978 161.203 C 346.344 185.671,337.969 210.149,324.104 230.977 C 322.192 233.849,317.625 240.089,316.150 241.846 C 308.417 251.052,303.160 256.313,294.274 263.734 C 290.574 266.824,281.779 272.931,276.842 275.837 C 271.468 279.001,259.805 284.812,258.829 284.812 C 258.630 284.812,258.338 284.926,258.180 285.064 C 257.451 285.708,246.874 289.334,241.053 290.936 C 210.903 299.234,174.084 296.928,147.460 285.073 C 146.766 284.764,146.133 284.511,146.054 284.511 C 145.788 284.511,141.249 282.373,137.143 280.313 C 106.672 265.026,81.921 238.452,68.639 206.767 C 67.877 204.947,67.239 203.430,67.223 203.396 C 67.001 202.933,62.423 204.171,62.509 204.670 C 62.793 206.302,69.208 220.260,70.101 221.188 C 70.252 221.345,70.376 221.774,70.376 222.140 C 70.376 222.507,70.507 222.852,70.668 222.907 C 70.829 222.962,71.016 223.346,71.085 223.759 C 71.154 224.173,71.355 224.479,71.532 224.440 C 71.709 224.401,71.942 224.840,72.050 225.415 C 72.158 225.990,72.350 226.397,72.478 226.318 C 72.605 226.239,72.797 226.613,72.905 227.148 C 73.059 227.912,73.162 228.024,73.388 227.669 C 73.633 227.284,73.676 227.295,73.680 227.744 C 73.682 228.034,73.829 228.271,74.005 228.271 C 74.196 228.271,74.244 228.531,74.123 228.910 C 74.012 229.261,74.037 229.479,74.178 229.393 C 74.320 229.306,74.611 229.425,74.824 229.656 C 75.140 229.998,75.140 230.077,74.824 230.085 C 74.571 230.091,74.618 230.232,74.958 230.490 C 75.245 230.708,75.391 230.975,75.284 231.082 C 75.176 231.190,75.317 231.278,75.596 231.278 C 75.924 231.278,76.171 231.608,76.291 232.206 C 76.393 232.717,76.660 233.205,76.885 233.291 C 77.109 233.377,77.293 233.636,77.293 233.867 C 77.293 234.097,77.437 234.286,77.612 234.286 C 77.787 234.286,77.847 234.421,77.744 234.586 C 77.642 234.752,77.702 234.887,77.877 234.887 C 78.052 234.887,78.195 235.076,78.195 235.306 C 78.195 235.537,78.400 235.804,78.649 235.899 C 78.899 235.995,79.068 236.246,79.025 236.458 C 78.982 236.669,79.117 236.808,79.323 236.767 C 79.530 236.726,79.699 236.899,79.699 237.152 C 79.699 237.406,79.894 237.688,80.132 237.779 C 80.370 237.870,80.651 238.336,80.756 238.815 C 80.861 239.293,81.103 239.654,81.293 239.617 C 81.484 239.579,81.687 239.861,81.745 240.243 C 81.803 240.624,82.179 241.086,82.580 241.268 C 82.980 241.451,83.308 241.845,83.308 242.143 C 83.308 242.441,83.579 242.830,83.910 243.008 C 84.241 243.185,84.511 243.508,84.511 243.726 C 84.511 243.944,84.880 244.515,85.331 244.994 C 85.782 245.473,86.161 246.000,86.172 246.165 C 86.183 246.331,86.342 246.437,86.525 246.401 C 86.708 246.365,86.942 246.675,87.046 247.090 C 87.151 247.505,87.333 247.788,87.452 247.720 C 87.572 247.652,87.940 247.870,88.271 248.205 C 88.602 248.540,88.703 248.718,88.496 248.600 C 88.289 248.482,88.120 248.465,88.120 248.561 C 88.120 248.658,88.459 248.865,88.872 249.023 C 89.286 249.180,89.624 249.515,89.624 249.767 C 89.624 250.019,89.759 250.226,89.925 250.226 C 90.090 250.226,90.226 250.429,90.226 250.677 C 90.226 250.925,90.353 251.128,90.510 251.128 C 90.874 251.128,94.789 255.034,94.855 255.464 C 94.936 255.988,96.039 257.143,96.458 257.143 C 96.669 257.143,96.808 257.306,96.767 257.505 C 96.726 257.704,96.895 257.874,97.143 257.881 C 97.391 257.889,97.594 258.098,97.594 258.346 C 97.594 258.594,97.797 258.797,98.045 258.797 C 98.293 258.797,98.496 259.000,98.496 259.248 C 98.496 259.496,98.686 259.699,98.917 259.699 C 99.149 259.699,99.424 259.946,99.530 260.248 C 99.636 260.550,99.853 260.786,100.012 260.774 C 100.171 260.762,100.301 260.921,100.301 261.128 C 100.301 261.335,100.470 261.521,100.677 261.541 C 101.778 261.651,101.801 261.666,101.353 261.955 C 101.078 262.133,101.043 262.248,101.263 262.251 C 101.461 262.254,101.985 262.591,102.428 263.002 C 102.871 263.412,103.355 263.673,103.504 263.581 C 103.653 263.489,103.737 263.587,103.692 263.799 C 103.646 264.010,103.744 264.192,103.910 264.202 C 104.391 264.232,105.548 265.346,105.380 265.618 C 105.296 265.753,105.432 265.865,105.682 265.865 C 105.931 265.865,106.273 266.102,106.442 266.391 C 106.612 266.683,106.753 266.750,106.758 266.541 C 106.769 266.085,107.970 267.218,107.970 267.685 C 107.970 267.859,108.389 268.147,108.901 268.326 C 109.585 268.564,109.725 268.719,109.427 268.907 C 109.132 269.094,109.123 269.165,109.395 269.168 C 109.600 269.171,110.044 269.410,110.382 269.699 C 110.720 269.989,111.162 270.226,111.363 270.226 C 111.565 270.226,111.729 270.429,111.729 270.677 C 111.729 270.925,111.903 271.128,112.116 271.128 C 112.329 271.128,112.600 271.281,112.718 271.469 C 112.836 271.657,113.203 271.868,113.534 271.938 C 113.865 272.008,114.107 272.211,114.072 272.389 C 114.037 272.566,114.443 272.799,114.974 272.906 C 115.733 273.059,115.843 273.162,115.489 273.388 C 115.138 273.611,115.218 273.676,115.847 273.680 C 116.292 273.682,116.753 273.840,116.871 274.031 C 117.012 274.260,116.941 274.304,116.663 274.160 C 116.431 274.039,116.503 274.153,116.824 274.414 C 117.145 274.674,117.653 274.887,117.952 274.887 C 118.251 274.887,118.496 275.090,118.496 275.338 C 118.496 275.589,118.764 275.789,119.098 275.789 C 119.432 275.789,119.699 275.990,119.699 276.241 C 119.699 276.489,119.801 276.676,119.925 276.656 C 120.654 276.541,121.203 276.750,121.203 277.143 C 121.203 277.393,121.470 277.594,121.805 277.594 C 122.135 277.594,122.406 277.729,122.406 277.895 C 122.406 278.060,122.599 278.195,122.836 278.195 C 123.072 278.195,123.497 278.427,123.779 278.710 C 124.062 278.992,124.556 279.264,124.877 279.313 C 125.197 279.362,125.662 279.604,125.909 279.851 C 126.156 280.098,126.494 280.301,126.660 280.301 C 127.086 280.301,127.827 281.095,127.607 281.315 C 127.506 281.417,127.848 281.585,128.368 281.689 C 128.888 281.793,129.249 281.982,129.170 282.110 C 129.091 282.238,129.228 282.421,129.475 282.515 C 129.723 282.610,129.929 282.523,129.934 282.321 C 129.939 282.120,130.083 282.195,130.253 282.488 C 130.424 282.780,130.690 282.942,130.846 282.846 C 131.001 282.750,131.128 282.799,131.128 282.955 C 131.128 283.226,132.238 283.709,132.707 283.642 C 132.831 283.624,132.932 283.812,132.932 284.060 C 132.932 284.308,133.034 284.495,133.158 284.476 C 133.838 284.368,134.447 284.550,134.286 284.812 C 134.114 285.090,134.532 285.248,135.147 285.137 C 135.289 285.111,135.604 285.332,135.846 285.628 C 136.087 285.924,136.200 285.996,136.095 285.789 C 135.990 285.583,136.048 285.414,136.223 285.414 C 136.398 285.414,136.541 285.625,136.541 285.882 C 136.541 286.140,136.667 286.273,136.821 286.178 C 136.975 286.083,137.192 286.152,137.303 286.331 C 137.414 286.511,137.694 286.585,137.925 286.496 C 138.157 286.407,138.346 286.460,138.346 286.612 C 138.346 286.765,138.820 286.979,139.398 287.088 C 139.977 287.196,140.451 287.395,140.451 287.528 C 140.451 287.662,140.875 287.865,141.393 287.979 C 142.087 288.131,142.226 288.255,141.920 288.449 C 141.610 288.645,141.676 288.714,142.180 288.717 C 143.187 288.724,143.275 288.746,143.684 289.085 C 143.891 289.257,144.060 289.303,144.060 289.188 C 144.060 289.073,144.273 289.192,144.533 289.452 C 144.793 289.712,145.402 289.925,145.886 289.925 C 146.371 289.925,146.767 290.048,146.767 290.199 C 146.767 290.350,147.309 290.565,147.971 290.677 C 148.634 290.789,149.109 290.989,149.027 291.121 C 148.945 291.253,149.489 291.453,150.234 291.565 C 150.980 291.676,151.523 291.878,151.440 292.012 C 151.357 292.146,151.858 292.347,152.553 292.458 C 153.248 292.569,153.901 292.796,154.004 292.963 C 154.107 293.130,154.719 293.332,155.363 293.412 C 156.008 293.492,156.665 293.687,156.824 293.846 C 156.983 294.005,157.390 294.137,157.729 294.140 C 158.238 294.144,158.267 294.196,157.895 294.436 C 157.564 294.650,157.779 294.729,158.704 294.732 C 159.397 294.735,160.040 294.859,160.133 295.009 C 160.226 295.159,160.606 295.215,160.978 295.134 C 161.521 295.015,161.565 295.049,161.203 295.308 C 160.832 295.573,160.885 295.637,161.504 295.669 C 161.917 295.691,162.391 295.740,162.556 295.778 C 162.722 295.817,163.237 295.869,163.702 295.894 C 164.180 295.920,164.466 296.070,164.361 296.241 C 164.200 296.501,165.330 296.710,166.125 296.565 C 166.269 296.539,166.708 296.729,167.103 296.988 C 167.497 297.246,167.820 297.319,167.820 297.150 C 167.820 296.981,167.963 296.842,168.138 296.842 C 168.313 296.842,168.373 296.977,168.271 297.143 C 168.168 297.308,168.397 297.458,168.779 297.476 C 169.161 297.493,169.677 297.538,169.925 297.575 C 170.173 297.611,170.891 297.665,171.522 297.693 C 172.198 297.723,172.591 297.868,172.481 298.045 C 172.379 298.211,172.540 298.351,172.839 298.357 C 174.705 298.397,177.319 298.746,177.460 298.975 C 177.552 299.123,178.905 299.329,180.468 299.434 C 182.030 299.538,183.376 299.728,183.459 299.856 C 184.097 300.844,221.575 300.837,221.905 299.849 C 221.960 299.684,222.340 299.549,222.750 299.549 C 223.265 299.549,223.425 299.664,223.268 299.925 C 223.093 300.217,223.148 300.216,223.515 299.918 C 223.774 299.708,224.915 299.462,226.049 299.371 C 227.183 299.281,228.180 299.095,228.266 298.959 C 228.351 298.823,229.639 298.613,231.128 298.493 C 232.617 298.373,233.999 298.143,234.199 297.982 C 234.400 297.821,235.136 297.634,235.835 297.567 C 236.535 297.500,237.184 297.319,237.279 297.166 C 237.373 297.013,238.292 296.793,239.321 296.677 C 240.350 296.560,241.118 296.347,241.029 296.202 C 240.940 296.058,241.315 295.919,241.862 295.894 C 242.409 295.869,242.992 295.817,243.158 295.778 C 243.323 295.740,243.865 295.683,244.361 295.653 C 245.147 295.604,245.186 295.564,244.662 295.338 C 244.150 295.118,244.206 295.071,245.038 295.021 C 245.575 294.989,246.150 294.929,246.316 294.887 C 246.481 294.846,246.895 294.795,247.236 294.774 C 247.627 294.751,247.775 294.607,247.638 294.385 C 247.490 294.147,247.586 294.097,247.932 294.230 C 248.238 294.347,248.507 294.261,248.601 294.015 C 248.688 293.790,249.322 293.515,250.010 293.405 C 250.697 293.295,251.336 293.083,251.428 292.933 C 251.520 292.784,252.112 292.609,252.743 292.544 C 253.374 292.480,254.013 292.236,254.163 292.003 C 254.392 291.647,254.478 291.645,254.700 291.989 C 254.887 292.279,254.999 292.296,255.082 292.048 C 255.146 291.855,255.444 291.661,255.744 291.617 C 256.043 291.573,256.413 291.343,256.565 291.107 C 256.793 290.752,256.888 290.747,257.101 291.078 C 257.310 291.401,257.395 291.387,257.543 291.003 C 257.644 290.738,258.071 290.526,258.505 290.526 C 258.947 290.526,259.203 290.397,259.098 290.226 C 258.996 290.060,259.055 289.925,259.230 289.925 C 259.406 289.925,259.553 290.094,259.558 290.301 C 259.563 290.509,259.704 290.442,259.874 290.150 C 260.042 289.861,260.377 289.624,260.616 289.624 C 260.856 289.624,261.053 289.504,261.053 289.357 C 261.053 289.210,261.560 288.994,262.180 288.878 C 262.800 288.762,263.381 288.547,263.471 288.401 C 263.637 288.132,264.615 287.887,265.714 287.837 C 266.207 287.815,266.235 287.760,265.871 287.529 C 265.539 287.319,265.755 287.195,266.722 287.040 C 267.488 286.917,267.869 286.740,267.654 286.607 C 267.423 286.464,267.636 286.305,268.231 286.174 C 268.749 286.060,269.173 285.849,269.173 285.704 C 269.173 285.559,269.645 285.352,270.223 285.244 C 270.800 285.135,271.200 284.929,271.111 284.785 C 271.022 284.641,271.508 284.434,272.191 284.324 C 273.030 284.190,273.303 284.044,273.032 283.872 C 272.711 283.668,272.721 283.613,273.083 283.591 C 274.153 283.525,274.742 283.312,275.063 282.874 C 275.251 282.617,275.728 282.404,276.123 282.401 C 276.698 282.398,276.752 282.338,276.391 282.105 C 276.005 281.856,276.016 281.813,276.466 281.809 C 276.756 281.807,276.992 281.673,276.992 281.513 C 276.992 281.353,277.195 281.300,277.444 281.395 C 277.692 281.490,277.895 281.418,277.895 281.235 C 277.895 281.052,278.151 280.902,278.464 280.902 C 278.777 280.902,279.111 280.699,279.207 280.451 C 279.302 280.203,279.663 280.000,280.008 280.000 C 280.354 280.000,280.553 279.865,280.451 279.699 C 280.349 279.534,280.480 279.398,280.744 279.398 C 281.007 279.398,281.300 279.195,281.395 278.947 C 281.490 278.699,281.747 278.496,281.966 278.496 C 282.184 278.496,282.576 278.284,282.836 278.024 C 283.191 277.668,283.311 277.650,283.317 277.948 C 283.323 278.196,283.444 278.145,283.637 277.813 C 283.807 277.520,284.069 277.356,284.219 277.449 C 284.369 277.542,284.664 277.341,284.875 277.004 C 285.085 276.667,285.504 276.391,285.804 276.391 C 286.105 276.391,286.268 276.256,286.165 276.090 C 286.001 275.824,286.378 275.664,286.972 275.747 C 287.084 275.763,287.502 275.389,287.899 274.916 C 288.297 274.444,288.915 273.964,289.274 273.850 C 289.632 273.737,289.925 273.528,289.925 273.387 C 289.925 273.246,290.349 273.037,290.867 272.924 C 291.492 272.786,291.681 272.637,291.429 272.481 C 291.161 272.316,291.260 272.180,291.765 272.022 C 292.159 271.899,292.578 271.648,292.696 271.463 C 292.814 271.279,293.026 271.128,293.168 271.128 C 293.310 271.128,293.663 270.891,293.953 270.602 C 294.242 270.312,294.706 270.073,294.984 270.071 C 295.389 270.067,295.407 270.014,295.073 269.803 C 294.750 269.598,294.810 269.491,295.345 269.321 C 295.723 269.201,296.554 268.570,297.192 267.919 C 297.831 267.268,298.487 266.818,298.650 266.919 C 298.814 267.020,298.949 266.858,298.952 266.559 C 298.955 266.143,299.017 266.110,299.213 266.420 C 299.402 266.718,299.520 266.620,299.665 266.044 C 299.773 265.614,300.062 265.263,300.306 265.263 C 300.551 265.263,301.023 264.992,301.353 264.662 C 301.684 264.331,301.963 264.162,301.974 264.286 C 301.984 264.410,302.119 264.198,302.272 263.815 C 302.426 263.432,302.672 263.194,302.820 263.286 C 302.968 263.377,303.160 263.183,303.246 262.854 C 303.332 262.525,303.626 262.256,303.899 262.256 C 304.173 262.256,304.313 262.120,304.211 261.955 C 304.108 261.789,304.158 261.654,304.322 261.654 C 304.485 261.654,305.121 261.180,305.735 260.602 C 306.349 260.023,306.975 259.549,307.127 259.549 C 307.280 259.549,307.327 259.425,307.234 259.274 C 307.140 259.123,307.437 258.863,307.893 258.696 C 308.349 258.530,308.519 258.377,308.271 258.356 C 308.023 258.336,308.226 258.133,308.722 257.906 C 309.218 257.678,309.437 257.481,309.209 257.468 C 308.980 257.455,309.961 256.314,311.389 254.934 C 312.817 253.554,313.985 252.268,313.985 252.077 C 313.985 251.886,314.188 251.729,314.436 251.729 C 314.684 251.729,314.853 251.566,314.812 251.367 C 314.771 251.168,314.940 250.999,315.188 250.991 C 315.436 250.984,315.639 250.837,315.639 250.665 C 315.639 250.493,316.079 249.922,316.617 249.397 C 317.154 248.871,317.594 248.301,317.594 248.130 C 317.594 247.959,318.116 247.312,318.754 246.691 C 319.392 246.071,320.010 245.259,320.128 244.887 C 320.245 244.515,320.475 244.211,320.640 244.211 C 320.804 244.211,320.841 244.367,320.723 244.558 C 320.589 244.775,320.641 244.823,320.861 244.687 C 321.054 244.568,321.134 244.343,321.038 244.188 C 320.943 244.032,321.076 243.824,321.334 243.725 C 321.593 243.626,321.805 243.296,321.805 242.993 C 321.805 242.690,321.961 242.345,322.152 242.227 C 322.380 242.086,322.424 242.157,322.280 242.435 C 322.159 242.667,322.274 242.594,322.534 242.273 C 322.794 241.952,323.008 241.466,323.008 241.194 C 323.008 240.921,323.346 240.544,323.759 240.355 C 324.211 240.150,324.511 239.763,324.511 239.387 C 324.511 239.043,324.637 238.839,324.790 238.934 C 324.944 239.029,325.156 238.834,325.262 238.501 C 325.368 238.167,325.580 237.895,325.735 237.895 C 325.889 237.895,326.015 237.706,326.015 237.476 C 326.015 237.245,326.218 236.979,326.466 236.884 C 326.714 236.789,326.917 236.518,326.917 236.282 C 326.917 236.047,327.110 235.780,327.345 235.690 C 327.580 235.599,327.820 235.213,327.879 234.830 C 327.937 234.448,328.150 234.169,328.353 234.211 C 328.556 234.252,328.722 234.030,328.722 233.716 C 328.722 233.403,328.925 233.069,329.173 232.974 C 329.421 232.879,329.624 232.540,329.624 232.222 C 329.624 231.904,329.810 231.572,330.037 231.485 C 330.264 231.398,330.541 230.844,330.652 230.254 C 330.762 229.664,331.013 229.213,331.209 229.252 C 331.404 229.291,331.611 229.019,331.668 228.647 C 331.725 228.274,331.882 227.970,332.018 227.970 C 332.154 227.970,332.351 227.632,332.454 227.218 C 332.558 226.805,332.765 226.466,332.914 226.466 C 333.063 226.466,333.274 226.060,333.383 225.564 C 333.492 225.068,333.675 224.662,333.790 224.662 C 333.904 224.662,334.333 224.019,334.743 223.233 C 335.153 222.447,335.579 221.735,335.690 221.651 C 335.801 221.567,335.985 221.127,336.099 220.674 C 336.213 220.220,336.417 219.850,336.554 219.850 C 336.859 219.850,337.290 218.644,337.182 218.090 C 337.138 217.867,337.247 217.773,337.423 217.882 C 337.615 218.001,337.746 217.801,337.749 217.386 C 337.752 216.892,337.827 216.807,338.007 217.092 C 338.179 217.363,338.325 217.096,338.457 216.265 C 338.565 215.590,338.777 215.038,338.927 215.038 C 339.077 215.038,339.293 214.614,339.407 214.095 C 339.538 213.501,339.698 213.288,339.840 213.518 C 339.974 213.736,340.145 213.386,340.262 212.656 C 340.370 211.981,340.577 211.429,340.722 211.429 C 340.867 211.429,341.081 210.921,341.197 210.301 C 341.313 209.682,341.552 209.085,341.728 208.977 C 341.904 208.868,342.088 208.406,342.136 207.951 C 342.185 207.495,342.355 207.042,342.513 206.944 C 342.672 206.846,342.897 206.260,343.013 205.641 C 343.129 205.023,343.344 204.591,343.492 204.682 C 343.743 204.837,343.891 204.388,343.782 203.797 C 343.756 203.652,343.926 203.314,344.161 203.045 C 344.396 202.776,344.681 201.911,344.795 201.122 C 344.908 200.333,345.128 199.766,345.282 199.862 C 345.437 199.957,345.580 199.791,345.599 199.491 C 345.618 199.192,345.665 198.812,345.703 198.647 C 345.742 198.481,345.794 197.966,345.819 197.501 C 345.844 197.036,345.987 196.732,346.137 196.825 C 346.287 196.917,346.503 196.316,346.617 195.489 C 346.730 194.662,346.946 193.985,347.096 193.985 C 347.246 193.985,347.368 193.589,347.368 193.104 C 347.368 192.620,347.571 192.020,347.820 191.772 C 348.367 191.225,348.413 190.857,347.895 191.168 C 347.608 191.340,347.598 191.291,347.856 190.960 C 348.041 190.721,348.284 190.019,348.395 189.398 C 348.507 188.778,348.762 188.269,348.961 188.266 C 349.185 188.263,349.152 188.149,348.872 187.965 C 348.514 187.730,348.501 187.618,348.807 187.419 C 349.020 187.282,349.272 186.369,349.367 185.389 C 349.463 184.410,349.650 183.540,349.783 183.457 C 349.916 183.373,350.121 182.324,350.239 181.126 C 350.357 179.928,350.557 178.947,350.684 178.947 C 350.811 178.947,351.013 177.831,351.132 176.466 C 351.252 175.102,351.467 173.910,351.611 173.819 C 351.754 173.728,351.946 172.442,352.038 170.962 C 352.129 169.482,352.339 167.459,352.506 166.466 C 352.672 165.474,352.891 162.530,352.991 159.925 L 353.173 155.188 352.451 155.222 C 352.054 155.240,351.053 155.384,350.226 155.540 M248.195 192.989 C 248.485 193.065,248.959 193.065,249.248 192.989 C 249.538 192.914,249.301 192.852,248.722 192.852 C 248.143 192.852,247.906 192.914,248.195 192.989 M207.293 199.614 C 207.748 199.683,208.492 199.683,208.947 199.614 C 209.402 199.545,209.030 199.489,208.120 199.489 C 207.211 199.489,206.838 199.545,207.293 199.614 " stroke="none" fill="#454545" fill-rule="evenodd"></path><path id="path4" d="M170.226 56.141 C 169.977 56.225,169.368 56.472,168.872 56.689 C 168.376 56.906,167.699 57.132,167.368 57.191 C 166.872 57.280,166.751 57.574,166.676 58.875 C 166.576 60.605,166.651 60.668,167.970 59.970 C 168.466 59.708,169.549 59.231,170.376 58.911 C 173.398 57.742,174.041 57.056,172.481 56.665 C 172.068 56.561,171.729 56.355,171.729 56.208 C 171.729 55.922,170.969 55.888,170.226 56.141 M156.015 62.308 L 154.286 63.246 154.286 65.342 L 154.286 67.438 154.962 66.994 C 156.472 66.006,161.747 62.963,163.083 62.310 C 165.015 61.366,164.987 61.352,161.128 61.361 C 157.917 61.369,157.656 61.417,156.015 62.308 M140.739 72.406 C 129.364 81.500,119.504 93.853,113.311 106.767 C 111.191 111.188,110.674 112.445,110.917 112.585 C 111.537 112.941,116.692 113.104,116.692 112.768 C 116.692 112.239,120.336 104.750,122.149 101.553 C 127.400 92.290,136.400 81.382,143.815 75.293 L 145.225 74.135 145.244 71.654 C 145.268 68.589,145.577 68.538,140.739 72.406 M118.163 195.020 C 118.090 195.093,117.170 195.292,116.118 195.461 C 113.695 195.851,113.731 195.794,114.732 197.668 C 123.432 213.963,135.069 226.450,150.905 236.483 C 153.695 238.251,159.682 241.504,160.145 241.504 C 160.231 241.504,160.301 240.375,160.301 238.995 L 160.301 236.487 157.209 234.668 C 142.715 226.140,129.816 212.869,121.591 198.021 C 119.911 194.988,118.996 194.187,118.163 195.020 M277.191 219.397 C 269.379 227.320,260.942 233.378,250.382 238.647 C 247.763 239.954,247.356 240.259,247.273 240.977 C 247.155 242.005,247.137 242.006,249.407 240.863 C 260.023 235.519,269.842 228.111,277.895 219.371 C 282.345 214.541,281.966 214.555,277.191 219.397 M169.386 243.233 L 169.474 245.564 172.632 246.662 C 176.864 248.133,176.584 248.205,176.479 245.672 L 176.391 243.524 174.135 242.711 C 172.895 242.264,171.356 241.674,170.715 241.400 C 170.075 241.126,169.494 240.902,169.424 240.902 C 169.355 240.902,169.338 241.951,169.386 243.233 M234.436 244.660 L 231.128 245.644 231.034 246.732 C 230.919 248.081,230.920 248.081,234.822 246.817 C 238.255 245.705,238.592 245.489,238.447 244.494 C 238.307 243.544,238.172 243.549,234.436 244.660 M185.263 247.949 L 185.263 249.882 186.842 250.185 C 187.711 250.351,189.199 250.573,190.150 250.679 L 191.880 250.870 191.880 249.063 L 191.880 247.255 190.451 247.057 C 189.665 246.949,188.259 246.670,187.325 246.437 C 186.391 246.205,185.545 246.015,185.445 246.015 C 185.345 246.015,185.263 246.885,185.263 247.949 M219.104 247.743 C 217.423 247.872,217.154 248.127,217.147 249.592 L 217.143 250.614 219.249 250.437 C 221.864 250.218,221.955 250.159,221.955 248.704 C 221.955 247.659,221.875 247.525,221.278 247.573 C 220.906 247.603,219.927 247.679,219.104 247.743 M200.902 249.925 L 200.902 251.447 204.586 251.363 L 208.271 251.278 208.271 249.925 L 208.271 248.571 204.586 248.487 L 200.902 248.403 200.902 249.925 " stroke="none" fill="#ec6c3a" fill-rule="evenodd"></path></g></svg>